M48
; DRILL file {KiCad (5.1.12)-1} date 12/13/21 23:10:35
; FORMAT={-:-/ absolute / metric / decimal}
; #@! TF.CreationDate,2021-12-13T23:10:35-06:00
; #@! TF.GenerationSoftware,Kicad,Pcbnew,(5.1.12)-1
; #@! TF.FileFunction,Plated,1,4,PTH
FMAT,2
METRIC
T1C0.300
T2C0.400
T3C0.750
T4C0.800
T5C0.813
T6C0.900
T7C0.960
T8C1.000
%
G90
G05
T1
X128.27Y-142.875
X130.81Y-128.905
X133.35Y-146.939
X133.985Y-146.177
X134.62Y-145.415
X135.89Y-123.825
X146.05Y-107.315
X148.59Y-136.525
X164.465Y-138.366
X190.5Y-116.205
T2
X115.57Y-106.68
X115.57Y-111.76
X115.57Y-116.84
X115.57Y-121.92
X115.57Y-127.0
X115.57Y-132.08
X115.57Y-137.16
X115.57Y-142.24
X121.92Y-149.86
X123.19Y-110.998
X123.19Y-115.062
X124.46Y-139.065
X124.714Y-142.748
X127.508Y-136.906
X128.905Y-144.145
X129.54Y-138.43
X132.08Y-135.636
X134.62Y-110.236
X134.62Y-116.586
X135.89Y-143.51
X138.43Y-142.494
X139.7Y-124.46
X139.7Y-129.54
X141.732Y-136.398
X142.24Y-124.46
X142.24Y-129.54
X142.24Y-139.192
X142.748Y-142.494
X144.272Y-136.398
X144.78Y-115.824
X144.78Y-124.46
X144.78Y-129.54
X144.78Y-139.192
X147.066Y-136.906
X147.32Y-116.078
X147.32Y-124.46
X147.32Y-129.54
X148.59Y-97.79
X149.352Y-117.856
X149.352Y-143.51
X149.86Y-124.46
X149.86Y-129.54
X150.749Y-103.632
X152.4Y-115.062
X152.4Y-117.094
X152.4Y-129.54
X152.527Y-100.457
X153.67Y-97.79
X153.67Y-137.668
X154.686Y-117.602
X154.94Y-124.46
X154.94Y-129.54
X157.48Y-115.062
X157.48Y-127.0
X157.48Y-132.08
X157.48Y-137.668
X158.75Y-97.79
X160.02Y-115.824
X160.02Y-123.952
X160.02Y-129.54
X160.02Y-132.08
X162.56Y-132.08
X162.56Y-137.414
X163.322Y-127.254
X163.83Y-97.79
X166.37Y-130.048
X168.91Y-97.79
X168.91Y-123.952
X172.72Y-123.952
X172.72Y-127.254
X172.72Y-139.065
X173.228Y-145.542
X174.498Y-130.048
X176.276Y-119.38
X176.276Y-123.952
X176.53Y-100.33
X177.038Y-132.334
X177.038Y-136.525
X180.34Y-144.78
X182.245Y-137.922
X184.785Y-142.875
X185.42Y-97.79
X187.706Y-106.68
X187.96Y-149.86
X190.5Y-97.79
X192.278Y-105.918
X193.04Y-149.86
X198.12Y-134.874
X198.12Y-140.716
X200.66Y-105.41
X200.66Y-110.49
X200.66Y-120.65
X200.66Y-125.73
X200.66Y-134.62
X200.66Y-139.7
T3
X181.61Y-119.38
X182.88Y-119.38
X184.15Y-119.38
X188.595Y-110.49
X189.865Y-110.49
X191.135Y-110.49
T4
X123.27Y-113.03
X123.825Y-98.425
X123.825Y-108.585
X127.635Y-98.425
X127.635Y-108.585
X128.27Y-113.03
X132.08Y-105.41
X132.08Y-113.03
X134.62Y-105.41
X134.62Y-113.03
X137.16Y-105.41
X137.16Y-113.03
X139.7Y-105.41
X139.7Y-113.03
X142.24Y-105.41
X142.24Y-113.03
X144.78Y-105.41
X144.78Y-113.03
X147.32Y-105.41
X147.32Y-113.03
X147.32Y-143.59
X147.32Y-148.59
X149.86Y-105.41
X149.86Y-113.03
X152.4Y-105.41
X152.4Y-113.03
X152.48Y-102.616
X154.94Y-105.41
X154.94Y-113.03
X157.48Y-102.616
X157.48Y-105.41
X157.48Y-113.03
X160.02Y-105.41
X160.02Y-113.03
X162.56Y-105.41
X162.56Y-113.03
X165.1Y-105.41
X165.1Y-113.03
X172.085Y-103.505
X172.085Y-106.68
X172.085Y-109.855
X172.085Y-113.03
X173.228Y-143.59
X173.228Y-148.59
X181.61Y-123.19
X181.61Y-133.35
X182.245Y-103.505
X182.245Y-106.68
X182.245Y-109.855
X182.245Y-113.03
X182.245Y-135.97
X182.245Y-140.97
X182.245Y-143.59
X182.245Y-148.59
X185.42Y-103.505
X185.42Y-113.665
X185.42Y-123.19
X185.42Y-133.35
X188.595Y-132.715
X188.595Y-142.875
X189.865Y-101.6
X189.865Y-106.6
X194.31Y-104.775
X194.31Y-112.395
T5
X134.62Y-119.38
X134.62Y-134.62
X137.16Y-119.38
X137.16Y-134.62
X139.7Y-119.38
X139.7Y-134.62
X142.24Y-119.38
X142.24Y-134.62
X144.78Y-119.38
X144.78Y-134.62
X147.32Y-119.38
X147.32Y-134.62
X149.86Y-119.38
X149.86Y-134.62
X152.4Y-119.38
X152.4Y-134.62
X154.94Y-119.38
X154.94Y-134.62
X157.48Y-119.38
X157.48Y-134.62
X160.02Y-119.38
X160.02Y-134.62
X162.56Y-119.38
X162.56Y-134.62
X165.1Y-119.38
X165.1Y-134.62
X167.64Y-119.38
X167.64Y-134.62
X170.18Y-119.38
X170.18Y-134.62
X172.72Y-119.38
X172.72Y-134.62
T6
X136.525Y-99.06
X136.525Y-101.6
X143.51Y-99.06
X143.51Y-101.6
X187.325Y-147.32
X189.865Y-147.32
T7
X189.23Y-118.745
X189.23Y-121.285
X189.23Y-123.825
X189.23Y-126.365
X191.77Y-120.015
X191.77Y-122.555
X191.77Y-125.095
X191.77Y-127.635
T8
X124.46Y-140.97
X124.46Y-148.59
X127.0Y-140.97
X127.0Y-148.59
X129.54Y-140.97
X129.54Y-148.59
X132.08Y-140.97
X132.08Y-148.59
X134.62Y-140.97
X134.62Y-148.59
X137.16Y-140.97
X137.16Y-148.59
X139.7Y-140.97
X139.7Y-148.59
X142.24Y-140.97
X142.24Y-148.59
X151.13Y-140.97
X151.13Y-148.59
X153.67Y-140.97
X153.67Y-148.59
X156.21Y-140.97
X156.21Y-148.59
X158.75Y-140.97
X158.75Y-148.59
X161.29Y-140.97
X161.29Y-148.59
X163.83Y-140.97
X163.83Y-148.59
X166.37Y-140.97
X166.37Y-148.59
X168.91Y-140.97
X168.91Y-148.59
X171.45Y-98.425
X173.99Y-98.425
X176.53Y-98.425
X177.8Y-142.24
X177.8Y-144.78
X177.8Y-147.32
X179.07Y-98.425
X181.61Y-98.425
T8
X192.072Y-137.495G85X192.072Y-138.095
G05
X195.372Y-133.095G85X194.772Y-133.095
G05
X198.072Y-137.495G85X198.072Y-138.095
G05
T0
M30
