%FSLAX45Y45*%
G04 Gerber Fmt 4.5, Leading zero omitted, Abs format (unit mm)*
G04 Created by KiCad (PCBNEW (5.1.12)-1) date 2021-12-13 23:10:36*
%MOMM*%
%LPD*%
G01*
G04 APERTURE LIST*
%TA.AperFunction,Profile*%
%ADD10C,0.381000*%
%TD*%
%ADD11C,0.200000*%
%ADD12C,0.300000*%
G04 APERTURE END LIST*
D10*
X11747500Y-15113000D02*
G75*
G02*
X11366500Y-14732000I0J381000D01*
G01*
X11366500Y-10033000D02*
G75*
G02*
X11747500Y-9652000I381000J0D01*
G01*
X19812000Y-9652000D02*
G75*
G02*
X20193000Y-10033000I0J-381000D01*
G01*
X20193000Y-14732000D02*
G75*
G02*
X19812000Y-15113000I-381000J0D01*
G01*
X11366500Y-14732000D02*
X11366500Y-10033000D01*
X19812000Y-15113000D02*
X11747500Y-15113000D01*
X20193000Y-10033000D02*
X20193000Y-14732000D01*
X11747500Y-9652000D02*
X19812000Y-9652000D01*
D11*
X11587500Y-9873000D02*
X11907500Y-10193000D01*
X11907500Y-9873000D02*
X11587500Y-10193000D01*
X11587500Y-14572000D02*
X11907500Y-14892000D01*
X11907500Y-14572000D02*
X11587500Y-14892000D01*
X19652000Y-9873000D02*
X19972000Y-10193000D01*
X19972000Y-9873000D02*
X19652000Y-10193000D01*
X19652000Y-11587500D02*
X19972000Y-11907500D01*
X19972000Y-11587500D02*
X19652000Y-11907500D01*
X19652000Y-12730500D02*
X19972000Y-13050500D01*
X19972000Y-12730500D02*
X19652000Y-13050500D01*
X19652000Y-14572000D02*
X19972000Y-14892000D01*
X19972000Y-14572000D02*
X19652000Y-14892000D01*
D12*
X11633878Y-15597764D02*
X11633878Y-15297764D01*
X11705307Y-15297764D01*
X11748164Y-15312050D01*
X11776736Y-15340621D01*
X11791021Y-15369193D01*
X11805307Y-15426336D01*
X11805307Y-15469193D01*
X11791021Y-15526336D01*
X11776736Y-15554907D01*
X11748164Y-15583479D01*
X11705307Y-15597764D01*
X11633878Y-15597764D01*
X11933878Y-15597764D02*
X11933878Y-15397764D01*
X11933878Y-15454907D02*
X11948164Y-15426336D01*
X11962450Y-15412050D01*
X11991021Y-15397764D01*
X12019593Y-15397764D01*
X12119593Y-15597764D02*
X12119593Y-15397764D01*
X12119593Y-15297764D02*
X12105307Y-15312050D01*
X12119593Y-15326336D01*
X12133878Y-15312050D01*
X12119593Y-15297764D01*
X12119593Y-15326336D01*
X12305307Y-15597764D02*
X12276736Y-15583479D01*
X12262450Y-15554907D01*
X12262450Y-15297764D01*
X12462450Y-15597764D02*
X12433878Y-15583479D01*
X12419593Y-15554907D01*
X12419593Y-15297764D01*
X12805307Y-15597764D02*
X12805307Y-15297764D01*
X12905307Y-15512050D01*
X13005307Y-15297764D01*
X13005307Y-15597764D01*
X13276736Y-15597764D02*
X13276736Y-15440621D01*
X13262450Y-15412050D01*
X13233878Y-15397764D01*
X13176736Y-15397764D01*
X13148164Y-15412050D01*
X13276736Y-15583479D02*
X13248164Y-15597764D01*
X13176736Y-15597764D01*
X13148164Y-15583479D01*
X13133878Y-15554907D01*
X13133878Y-15526336D01*
X13148164Y-15497764D01*
X13176736Y-15483479D01*
X13248164Y-15483479D01*
X13276736Y-15469193D01*
X13419593Y-15397764D02*
X13419593Y-15697764D01*
X13419593Y-15412050D02*
X13448164Y-15397764D01*
X13505307Y-15397764D01*
X13533878Y-15412050D01*
X13548164Y-15426336D01*
X13562450Y-15454907D01*
X13562450Y-15540621D01*
X13548164Y-15569193D01*
X13533878Y-15583479D01*
X13505307Y-15597764D01*
X13448164Y-15597764D01*
X13419593Y-15583479D01*
X13691021Y-15569193D02*
X13705307Y-15583479D01*
X13691021Y-15597764D01*
X13676736Y-15583479D01*
X13691021Y-15569193D01*
X13691021Y-15597764D01*
X13691021Y-15412050D02*
X13705307Y-15426336D01*
X13691021Y-15440621D01*
X13676736Y-15426336D01*
X13691021Y-15412050D01*
X13691021Y-15440621D01*
X11027450Y-15932050D02*
X11347450Y-16252050D01*
X11347450Y-15932050D02*
X11027450Y-16252050D01*
X11605307Y-15927764D02*
X11791021Y-15927764D01*
X11691021Y-16042050D01*
X11733878Y-16042050D01*
X11762450Y-16056336D01*
X11776736Y-16070621D01*
X11791021Y-16099193D01*
X11791021Y-16170621D01*
X11776736Y-16199193D01*
X11762450Y-16213479D01*
X11733878Y-16227764D01*
X11648164Y-16227764D01*
X11619593Y-16213479D01*
X11605307Y-16199193D01*
X11919593Y-16199193D02*
X11933878Y-16213479D01*
X11919593Y-16227764D01*
X11905307Y-16213479D01*
X11919593Y-16199193D01*
X11919593Y-16227764D01*
X12048164Y-15956336D02*
X12062450Y-15942050D01*
X12091021Y-15927764D01*
X12162450Y-15927764D01*
X12191021Y-15942050D01*
X12205307Y-15956336D01*
X12219593Y-15984907D01*
X12219593Y-16013479D01*
X12205307Y-16056336D01*
X12033878Y-16227764D01*
X12219593Y-16227764D01*
X12405307Y-15927764D02*
X12433878Y-15927764D01*
X12462450Y-15942050D01*
X12476736Y-15956336D01*
X12491021Y-15984907D01*
X12505307Y-16042050D01*
X12505307Y-16113479D01*
X12491021Y-16170621D01*
X12476736Y-16199193D01*
X12462450Y-16213479D01*
X12433878Y-16227764D01*
X12405307Y-16227764D01*
X12376736Y-16213479D01*
X12362450Y-16199193D01*
X12348164Y-16170621D01*
X12333878Y-16113479D01*
X12333878Y-16042050D01*
X12348164Y-15984907D01*
X12362450Y-15956336D01*
X12376736Y-15942050D01*
X12405307Y-15927764D01*
X12691021Y-15927764D02*
X12719593Y-15927764D01*
X12748164Y-15942050D01*
X12762450Y-15956336D01*
X12776736Y-15984907D01*
X12791021Y-16042050D01*
X12791021Y-16113479D01*
X12776736Y-16170621D01*
X12762450Y-16199193D01*
X12748164Y-16213479D01*
X12719593Y-16227764D01*
X12691021Y-16227764D01*
X12662450Y-16213479D01*
X12648164Y-16199193D01*
X12633878Y-16170621D01*
X12619593Y-16113479D01*
X12619593Y-16042050D01*
X12633878Y-15984907D01*
X12648164Y-15956336D01*
X12662450Y-15942050D01*
X12691021Y-15927764D01*
X12919593Y-16227764D02*
X12919593Y-16027764D01*
X12919593Y-16056336D02*
X12933878Y-16042050D01*
X12962450Y-16027764D01*
X13005307Y-16027764D01*
X13033878Y-16042050D01*
X13048164Y-16070621D01*
X13048164Y-16227764D01*
X13048164Y-16070621D02*
X13062450Y-16042050D01*
X13091021Y-16027764D01*
X13133878Y-16027764D01*
X13162450Y-16042050D01*
X13176736Y-16070621D01*
X13176736Y-16227764D01*
X13319593Y-16227764D02*
X13319593Y-16027764D01*
X13319593Y-16056336D02*
X13333878Y-16042050D01*
X13362450Y-16027764D01*
X13405307Y-16027764D01*
X13433878Y-16042050D01*
X13448164Y-16070621D01*
X13448164Y-16227764D01*
X13448164Y-16070621D02*
X13462450Y-16042050D01*
X13491021Y-16027764D01*
X13533878Y-16027764D01*
X13562450Y-16042050D01*
X13576736Y-16070621D01*
X13576736Y-16227764D01*
X14162450Y-15913479D02*
X13905307Y-16299193D01*
X14548164Y-15927764D02*
X14576736Y-15927764D01*
X14605307Y-15942050D01*
X14619593Y-15956336D01*
X14633878Y-15984907D01*
X14648164Y-16042050D01*
X14648164Y-16113479D01*
X14633878Y-16170621D01*
X14619593Y-16199193D01*
X14605307Y-16213479D01*
X14576736Y-16227764D01*
X14548164Y-16227764D01*
X14519593Y-16213479D01*
X14505307Y-16199193D01*
X14491021Y-16170621D01*
X14476736Y-16113479D01*
X14476736Y-16042050D01*
X14491021Y-15984907D01*
X14505307Y-15956336D01*
X14519593Y-15942050D01*
X14548164Y-15927764D01*
X14776736Y-16199193D02*
X14791021Y-16213479D01*
X14776736Y-16227764D01*
X14762450Y-16213479D01*
X14776736Y-16199193D01*
X14776736Y-16227764D01*
X15076736Y-16227764D02*
X14905307Y-16227764D01*
X14991021Y-16227764D02*
X14991021Y-15927764D01*
X14962450Y-15970621D01*
X14933878Y-15999193D01*
X14905307Y-16013479D01*
X15191021Y-15956336D02*
X15205307Y-15942050D01*
X15233878Y-15927764D01*
X15305307Y-15927764D01*
X15333878Y-15942050D01*
X15348164Y-15956336D01*
X15362450Y-15984907D01*
X15362450Y-16013479D01*
X15348164Y-16056336D01*
X15176736Y-16227764D01*
X15362450Y-16227764D01*
X15619593Y-15927764D02*
X15562450Y-15927764D01*
X15533878Y-15942050D01*
X15519593Y-15956336D01*
X15491021Y-15999193D01*
X15476736Y-16056336D01*
X15476736Y-16170621D01*
X15491021Y-16199193D01*
X15505307Y-16213479D01*
X15533878Y-16227764D01*
X15591021Y-16227764D01*
X15619593Y-16213479D01*
X15633878Y-16199193D01*
X15648164Y-16170621D01*
X15648164Y-16099193D01*
X15633878Y-16070621D01*
X15619593Y-16056336D01*
X15591021Y-16042050D01*
X15533878Y-16042050D01*
X15505307Y-16056336D01*
X15491021Y-16070621D01*
X15476736Y-16099193D01*
X15833878Y-15927764D02*
X15862450Y-15927764D01*
X15891021Y-15942050D01*
X15905307Y-15956336D01*
X15919593Y-15984907D01*
X15933878Y-16042050D01*
X15933878Y-16113479D01*
X15919593Y-16170621D01*
X15905307Y-16199193D01*
X15891021Y-16213479D01*
X15862450Y-16227764D01*
X15833878Y-16227764D01*
X15805307Y-16213479D01*
X15791021Y-16199193D01*
X15776736Y-16170621D01*
X15762450Y-16113479D01*
X15762450Y-16042050D01*
X15776736Y-15984907D01*
X15791021Y-15956336D01*
X15805307Y-15942050D01*
X15833878Y-15927764D01*
X16048164Y-15927764D02*
X16048164Y-15984907D01*
X16162450Y-15927764D02*
X16162450Y-15984907D01*
X16605307Y-16342050D02*
X16591021Y-16327764D01*
X16562450Y-16284907D01*
X16548164Y-16256336D01*
X16533878Y-16213479D01*
X16519593Y-16142050D01*
X16519593Y-16084907D01*
X16533878Y-16013479D01*
X16548164Y-15970621D01*
X16562450Y-15942050D01*
X16591021Y-15899193D01*
X16605307Y-15884907D01*
X16848164Y-15927764D02*
X16791021Y-15927764D01*
X16762450Y-15942050D01*
X16748164Y-15956336D01*
X16719593Y-15999193D01*
X16705307Y-16056336D01*
X16705307Y-16170621D01*
X16719593Y-16199193D01*
X16733878Y-16213479D01*
X16762450Y-16227764D01*
X16819593Y-16227764D01*
X16848164Y-16213479D01*
X16862450Y-16199193D01*
X16876736Y-16170621D01*
X16876736Y-16099193D01*
X16862450Y-16070621D01*
X16848164Y-16056336D01*
X16819593Y-16042050D01*
X16762450Y-16042050D01*
X16733878Y-16056336D01*
X16719593Y-16070621D01*
X16705307Y-16099193D01*
X17233878Y-16227764D02*
X17233878Y-15927764D01*
X17362450Y-16227764D02*
X17362450Y-16070621D01*
X17348164Y-16042050D01*
X17319593Y-16027764D01*
X17276736Y-16027764D01*
X17248164Y-16042050D01*
X17233878Y-16056336D01*
X17548164Y-16227764D02*
X17519593Y-16213479D01*
X17505307Y-16199193D01*
X17491021Y-16170621D01*
X17491021Y-16084907D01*
X17505307Y-16056336D01*
X17519593Y-16042050D01*
X17548164Y-16027764D01*
X17591021Y-16027764D01*
X17619593Y-16042050D01*
X17633878Y-16056336D01*
X17648164Y-16084907D01*
X17648164Y-16170621D01*
X17633878Y-16199193D01*
X17619593Y-16213479D01*
X17591021Y-16227764D01*
X17548164Y-16227764D01*
X17819593Y-16227764D02*
X17791021Y-16213479D01*
X17776736Y-16184907D01*
X17776736Y-15927764D01*
X18048164Y-16213479D02*
X18019593Y-16227764D01*
X17962450Y-16227764D01*
X17933878Y-16213479D01*
X17919593Y-16184907D01*
X17919593Y-16070621D01*
X17933878Y-16042050D01*
X17962450Y-16027764D01*
X18019593Y-16027764D01*
X18048164Y-16042050D01*
X18062450Y-16070621D01*
X18062450Y-16099193D01*
X17919593Y-16127764D01*
X18176736Y-16213479D02*
X18205307Y-16227764D01*
X18262450Y-16227764D01*
X18291021Y-16213479D01*
X18305307Y-16184907D01*
X18305307Y-16170621D01*
X18291021Y-16142050D01*
X18262450Y-16127764D01*
X18219593Y-16127764D01*
X18191021Y-16113479D01*
X18176736Y-16084907D01*
X18176736Y-16070621D01*
X18191021Y-16042050D01*
X18219593Y-16027764D01*
X18262450Y-16027764D01*
X18291021Y-16042050D01*
X18405307Y-16342050D02*
X18419593Y-16327764D01*
X18448164Y-16284907D01*
X18462450Y-16256336D01*
X18476736Y-16213479D01*
X18491021Y-16142050D01*
X18491021Y-16084907D01*
X18476736Y-16013479D01*
X18462450Y-15970621D01*
X18448164Y-15942050D01*
X18419593Y-15899193D01*
X18405307Y-15884907D01*
X18948164Y-16342050D02*
X18933878Y-16327764D01*
X18905307Y-16284907D01*
X18891021Y-16256336D01*
X18876736Y-16213479D01*
X18862450Y-16142050D01*
X18862450Y-16084907D01*
X18876736Y-16013479D01*
X18891021Y-15970621D01*
X18905307Y-15942050D01*
X18933878Y-15899193D01*
X18948164Y-15884907D01*
X19062450Y-16027764D02*
X19062450Y-16227764D01*
X19062450Y-16056336D02*
X19076736Y-16042050D01*
X19105307Y-16027764D01*
X19148164Y-16027764D01*
X19176736Y-16042050D01*
X19191021Y-16070621D01*
X19191021Y-16227764D01*
X19376736Y-16227764D02*
X19348164Y-16213479D01*
X19333878Y-16199193D01*
X19319593Y-16170621D01*
X19319593Y-16084907D01*
X19333878Y-16056336D01*
X19348164Y-16042050D01*
X19376736Y-16027764D01*
X19419593Y-16027764D01*
X19448164Y-16042050D01*
X19462450Y-16056336D01*
X19476736Y-16084907D01*
X19476736Y-16170621D01*
X19462450Y-16199193D01*
X19448164Y-16213479D01*
X19419593Y-16227764D01*
X19376736Y-16227764D01*
X19562450Y-16027764D02*
X19676736Y-16027764D01*
X19605307Y-15927764D02*
X19605307Y-16184907D01*
X19619593Y-16213479D01*
X19648164Y-16227764D01*
X19676736Y-16227764D01*
X20005307Y-16027764D02*
X20005307Y-16327764D01*
X20005307Y-16042050D02*
X20033878Y-16027764D01*
X20091021Y-16027764D01*
X20119593Y-16042050D01*
X20133878Y-16056336D01*
X20148164Y-16084907D01*
X20148164Y-16170621D01*
X20133878Y-16199193D01*
X20119593Y-16213479D01*
X20091021Y-16227764D01*
X20033878Y-16227764D01*
X20005307Y-16213479D01*
X20319593Y-16227764D02*
X20291021Y-16213479D01*
X20276736Y-16184907D01*
X20276736Y-15927764D01*
X20562450Y-16227764D02*
X20562450Y-16070621D01*
X20548164Y-16042050D01*
X20519593Y-16027764D01*
X20462450Y-16027764D01*
X20433878Y-16042050D01*
X20562450Y-16213479D02*
X20533878Y-16227764D01*
X20462450Y-16227764D01*
X20433878Y-16213479D01*
X20419593Y-16184907D01*
X20419593Y-16156336D01*
X20433878Y-16127764D01*
X20462450Y-16113479D01*
X20533878Y-16113479D01*
X20562450Y-16099193D01*
X20662450Y-16027764D02*
X20776736Y-16027764D01*
X20705307Y-15927764D02*
X20705307Y-16184907D01*
X20719593Y-16213479D01*
X20748164Y-16227764D01*
X20776736Y-16227764D01*
X20991021Y-16213479D02*
X20962450Y-16227764D01*
X20905307Y-16227764D01*
X20876736Y-16213479D01*
X20862450Y-16184907D01*
X20862450Y-16070621D01*
X20876736Y-16042050D01*
X20905307Y-16027764D01*
X20962450Y-16027764D01*
X20991021Y-16042050D01*
X21005307Y-16070621D01*
X21005307Y-16099193D01*
X20862450Y-16127764D01*
X21262450Y-16227764D02*
X21262450Y-15927764D01*
X21262450Y-16213479D02*
X21233878Y-16227764D01*
X21176736Y-16227764D01*
X21148164Y-16213479D01*
X21133878Y-16199193D01*
X21119593Y-16170621D01*
X21119593Y-16084907D01*
X21133878Y-16056336D01*
X21148164Y-16042050D01*
X21176736Y-16027764D01*
X21233878Y-16027764D01*
X21262450Y-16042050D01*
X21376736Y-16342050D02*
X21391021Y-16327764D01*
X21419593Y-16284907D01*
X21433878Y-16256336D01*
X21448164Y-16213479D01*
X21462450Y-16142050D01*
X21462450Y-16084907D01*
X21448164Y-16013479D01*
X21433878Y-15970621D01*
X21419593Y-15942050D01*
X21391021Y-15899193D01*
X21376736Y-15884907D01*
M02*
