G04 #@! TF.GenerationSoftware,KiCad,Pcbnew,(5.1.12)-1*
G04 #@! TF.CreationDate,2021-12-13T23:10:33-06:00*
G04 #@! TF.ProjectId,1005 Flash Programmer,31303035-2046-46c6-9173-682050726f67,1*
G04 #@! TF.SameCoordinates,Original*
G04 #@! TF.FileFunction,Legend,Top*
G04 #@! TF.FilePolarity,Positive*
%FSLAX46Y46*%
G04 Gerber Fmt 4.6, Leading zero omitted, Abs format (unit mm)*
G04 Created by KiCad (PCBNEW (5.1.12)-1) date 2021-12-13 23:10:33*
%MOMM*%
%LPD*%
G01*
G04 APERTURE LIST*
%ADD10C,0.300000*%
%ADD11C,0.150000*%
%ADD12C,0.010000*%
%ADD13C,0.120000*%
%ADD14C,0.100000*%
%ADD15C,0.152400*%
%ADD16O,1.600000X1.600000*%
%ADD17C,1.600000*%
%ADD18R,1.600000X1.600000*%
%ADD19R,1.050000X1.500000*%
%ADD20O,1.050000X1.500000*%
%ADD21R,1.960000X1.960000*%
%ADD22C,1.960000*%
%ADD23C,3.200000*%
%ADD24C,1.800000*%
%ADD25R,1.800000X1.800000*%
%ADD26R,2.600000X2.000000*%
%ADD27R,2.000000X2.600000*%
%ADD28R,1.700000X1.700000*%
%ADD29O,1.700000X1.700000*%
%ADD30R,1.625600X1.625600*%
%ADD31C,1.625600*%
%ADD32R,2.000000X2.000000*%
%ADD33C,2.000000*%
G04 APERTURE END LIST*
D10*
X181038571Y-101572142D02*
X181038571Y-101643571D01*
X181110000Y-101429285D02*
X181110000Y-101643571D01*
X181181428Y-101286428D02*
X181181428Y-101643571D01*
X181252857Y-101143571D02*
X181252857Y-101643571D01*
X181324285Y-101072142D02*
X181324285Y-101643571D01*
X181395714Y-100929285D02*
X181395714Y-101643571D01*
X181467142Y-100786428D02*
X181467142Y-101643571D01*
X181538571Y-100643571D02*
X181538571Y-101643571D01*
X181610000Y-100500714D02*
X181610000Y-101643571D01*
X181681428Y-100643571D02*
X181681428Y-101643571D01*
X181752857Y-100786428D02*
X181752857Y-101643571D01*
X181824285Y-100929285D02*
X181824285Y-101643571D01*
X181895714Y-101072142D02*
X181895714Y-101643571D01*
X181967142Y-101143571D02*
X181967142Y-101643571D01*
X182038571Y-101286428D02*
X182038571Y-101643571D01*
X182110000Y-101429285D02*
X182110000Y-101643571D01*
X182181428Y-101643571D02*
X181610000Y-100572142D01*
X181038571Y-101643571D01*
X182181428Y-101572142D02*
X182181428Y-101643571D01*
X181610000Y-100500714D02*
X182252857Y-101643571D01*
X180967142Y-101643571D01*
X181610000Y-100500714D01*
D11*
X147867619Y-98377523D02*
X147867619Y-98948952D01*
X146867619Y-98663238D02*
X147867619Y-98663238D01*
X146867619Y-99187047D02*
X147534285Y-99710857D01*
X147534285Y-99187047D02*
X146867619Y-99710857D01*
X146867619Y-100091809D02*
X147867619Y-100091809D01*
X147867619Y-100329904D01*
X147820000Y-100472761D01*
X147724761Y-100568000D01*
X147629523Y-100615619D01*
X147439047Y-100663238D01*
X147296190Y-100663238D01*
X147105714Y-100615619D01*
X147010476Y-100568000D01*
X146915238Y-100472761D01*
X146867619Y-100329904D01*
X146867619Y-100091809D01*
X132135619Y-98972761D02*
X132611809Y-98639428D01*
X132135619Y-98401333D02*
X133135619Y-98401333D01*
X133135619Y-98782285D01*
X133088000Y-98877523D01*
X133040380Y-98925142D01*
X132945142Y-98972761D01*
X132802285Y-98972761D01*
X132707047Y-98925142D01*
X132659428Y-98877523D01*
X132611809Y-98782285D01*
X132611809Y-98401333D01*
X132135619Y-99306095D02*
X132802285Y-99829904D01*
X132802285Y-99306095D02*
X132135619Y-99829904D01*
X132135619Y-100210857D02*
X133135619Y-100210857D01*
X133135619Y-100448952D01*
X133088000Y-100591809D01*
X132992761Y-100687047D01*
X132897523Y-100734666D01*
X132707047Y-100782285D01*
X132564190Y-100782285D01*
X132373714Y-100734666D01*
X132278476Y-100687047D01*
X132183238Y-100591809D01*
X132135619Y-100448952D01*
X132135619Y-100210857D01*
X119752619Y-105205000D02*
X119752619Y-104633571D01*
X119752619Y-104919285D02*
X120752619Y-104919285D01*
X120609761Y-104824047D01*
X120514523Y-104728809D01*
X120466904Y-104633571D01*
X120752619Y-105824047D02*
X120752619Y-105919285D01*
X120705000Y-106014523D01*
X120657380Y-106062142D01*
X120562142Y-106109761D01*
X120371666Y-106157380D01*
X120133571Y-106157380D01*
X119943095Y-106109761D01*
X119847857Y-106062142D01*
X119800238Y-106014523D01*
X119752619Y-105919285D01*
X119752619Y-105824047D01*
X119800238Y-105728809D01*
X119847857Y-105681190D01*
X119943095Y-105633571D01*
X120133571Y-105585952D01*
X120371666Y-105585952D01*
X120562142Y-105633571D01*
X120657380Y-105681190D01*
X120705000Y-105728809D01*
X120752619Y-105824047D01*
X120752619Y-106776428D02*
X120752619Y-106871666D01*
X120705000Y-106966904D01*
X120657380Y-107014523D01*
X120562142Y-107062142D01*
X120371666Y-107109761D01*
X120133571Y-107109761D01*
X119943095Y-107062142D01*
X119847857Y-107014523D01*
X119800238Y-106966904D01*
X119752619Y-106871666D01*
X119752619Y-106776428D01*
X119800238Y-106681190D01*
X119847857Y-106633571D01*
X119943095Y-106585952D01*
X120133571Y-106538333D01*
X120371666Y-106538333D01*
X120562142Y-106585952D01*
X120657380Y-106633571D01*
X120705000Y-106681190D01*
X120752619Y-106776428D01*
X120752619Y-108014523D02*
X120752619Y-107538333D01*
X120276428Y-107490714D01*
X120324047Y-107538333D01*
X120371666Y-107633571D01*
X120371666Y-107871666D01*
X120324047Y-107966904D01*
X120276428Y-108014523D01*
X120181190Y-108062142D01*
X119943095Y-108062142D01*
X119847857Y-108014523D01*
X119800238Y-107966904D01*
X119752619Y-107871666D01*
X119752619Y-107633571D01*
X119800238Y-107538333D01*
X119847857Y-107490714D01*
X120276428Y-109585952D02*
X120276428Y-109252619D01*
X119752619Y-109252619D02*
X120752619Y-109252619D01*
X120752619Y-109728809D01*
X119752619Y-110252619D02*
X119800238Y-110157380D01*
X119895476Y-110109761D01*
X120752619Y-110109761D01*
X119752619Y-111062142D02*
X120276428Y-111062142D01*
X120371666Y-111014523D01*
X120419285Y-110919285D01*
X120419285Y-110728809D01*
X120371666Y-110633571D01*
X119800238Y-111062142D02*
X119752619Y-110966904D01*
X119752619Y-110728809D01*
X119800238Y-110633571D01*
X119895476Y-110585952D01*
X119990714Y-110585952D01*
X120085952Y-110633571D01*
X120133571Y-110728809D01*
X120133571Y-110966904D01*
X120181190Y-111062142D01*
X119800238Y-111490714D02*
X119752619Y-111585952D01*
X119752619Y-111776428D01*
X119800238Y-111871666D01*
X119895476Y-111919285D01*
X119943095Y-111919285D01*
X120038333Y-111871666D01*
X120085952Y-111776428D01*
X120085952Y-111633571D01*
X120133571Y-111538333D01*
X120228809Y-111490714D01*
X120276428Y-111490714D01*
X120371666Y-111538333D01*
X120419285Y-111633571D01*
X120419285Y-111776428D01*
X120371666Y-111871666D01*
X119752619Y-112347857D02*
X120752619Y-112347857D01*
X119752619Y-112776428D02*
X120276428Y-112776428D01*
X120371666Y-112728809D01*
X120419285Y-112633571D01*
X120419285Y-112490714D01*
X120371666Y-112395476D01*
X120324047Y-112347857D01*
X119752619Y-114014523D02*
X120752619Y-114014523D01*
X120752619Y-114395476D01*
X120705000Y-114490714D01*
X120657380Y-114538333D01*
X120562142Y-114585952D01*
X120419285Y-114585952D01*
X120324047Y-114538333D01*
X120276428Y-114490714D01*
X120228809Y-114395476D01*
X120228809Y-114014523D01*
X119752619Y-115014523D02*
X120419285Y-115014523D01*
X120228809Y-115014523D02*
X120324047Y-115062142D01*
X120371666Y-115109761D01*
X120419285Y-115205000D01*
X120419285Y-115300238D01*
X119752619Y-115776428D02*
X119800238Y-115681190D01*
X119847857Y-115633571D01*
X119943095Y-115585952D01*
X120228809Y-115585952D01*
X120324047Y-115633571D01*
X120371666Y-115681190D01*
X120419285Y-115776428D01*
X120419285Y-115919285D01*
X120371666Y-116014523D01*
X120324047Y-116062142D01*
X120228809Y-116109761D01*
X119943095Y-116109761D01*
X119847857Y-116062142D01*
X119800238Y-116014523D01*
X119752619Y-115919285D01*
X119752619Y-115776428D01*
X120419285Y-116966904D02*
X119609761Y-116966904D01*
X119514523Y-116919285D01*
X119466904Y-116871666D01*
X119419285Y-116776428D01*
X119419285Y-116633571D01*
X119466904Y-116538333D01*
X119800238Y-116966904D02*
X119752619Y-116871666D01*
X119752619Y-116681190D01*
X119800238Y-116585952D01*
X119847857Y-116538333D01*
X119943095Y-116490714D01*
X120228809Y-116490714D01*
X120324047Y-116538333D01*
X120371666Y-116585952D01*
X120419285Y-116681190D01*
X120419285Y-116871666D01*
X120371666Y-116966904D01*
X119752619Y-117443095D02*
X120419285Y-117443095D01*
X120228809Y-117443095D02*
X120324047Y-117490714D01*
X120371666Y-117538333D01*
X120419285Y-117633571D01*
X120419285Y-117728809D01*
X119752619Y-118490714D02*
X120276428Y-118490714D01*
X120371666Y-118443095D01*
X120419285Y-118347857D01*
X120419285Y-118157380D01*
X120371666Y-118062142D01*
X119800238Y-118490714D02*
X119752619Y-118395476D01*
X119752619Y-118157380D01*
X119800238Y-118062142D01*
X119895476Y-118014523D01*
X119990714Y-118014523D01*
X120085952Y-118062142D01*
X120133571Y-118157380D01*
X120133571Y-118395476D01*
X120181190Y-118490714D01*
X119752619Y-118966904D02*
X120419285Y-118966904D01*
X120324047Y-118966904D02*
X120371666Y-119014523D01*
X120419285Y-119109761D01*
X120419285Y-119252619D01*
X120371666Y-119347857D01*
X120276428Y-119395476D01*
X119752619Y-119395476D01*
X120276428Y-119395476D02*
X120371666Y-119443095D01*
X120419285Y-119538333D01*
X120419285Y-119681190D01*
X120371666Y-119776428D01*
X120276428Y-119824047D01*
X119752619Y-119824047D01*
X119752619Y-120300238D02*
X120419285Y-120300238D01*
X120324047Y-120300238D02*
X120371666Y-120347857D01*
X120419285Y-120443095D01*
X120419285Y-120585952D01*
X120371666Y-120681190D01*
X120276428Y-120728809D01*
X119752619Y-120728809D01*
X120276428Y-120728809D02*
X120371666Y-120776428D01*
X120419285Y-120871666D01*
X120419285Y-121014523D01*
X120371666Y-121109761D01*
X120276428Y-121157380D01*
X119752619Y-121157380D01*
X119800238Y-122014523D02*
X119752619Y-121919285D01*
X119752619Y-121728809D01*
X119800238Y-121633571D01*
X119895476Y-121585952D01*
X120276428Y-121585952D01*
X120371666Y-121633571D01*
X120419285Y-121728809D01*
X120419285Y-121919285D01*
X120371666Y-122014523D01*
X120276428Y-122062142D01*
X120181190Y-122062142D01*
X120085952Y-121585952D01*
X119752619Y-122490714D02*
X120419285Y-122490714D01*
X120228809Y-122490714D02*
X120324047Y-122538333D01*
X120371666Y-122585952D01*
X120419285Y-122681190D01*
X120419285Y-122776428D01*
X119752619Y-124443095D02*
X120228809Y-124109761D01*
X119752619Y-123871666D02*
X120752619Y-123871666D01*
X120752619Y-124252619D01*
X120705000Y-124347857D01*
X120657380Y-124395476D01*
X120562142Y-124443095D01*
X120419285Y-124443095D01*
X120324047Y-124395476D01*
X120276428Y-124347857D01*
X120228809Y-124252619D01*
X120228809Y-123871666D01*
X119800238Y-125252619D02*
X119752619Y-125157380D01*
X119752619Y-124966904D01*
X119800238Y-124871666D01*
X119895476Y-124824047D01*
X120276428Y-124824047D01*
X120371666Y-124871666D01*
X120419285Y-124966904D01*
X120419285Y-125157380D01*
X120371666Y-125252619D01*
X120276428Y-125300238D01*
X120181190Y-125300238D01*
X120085952Y-124824047D01*
X120419285Y-125633571D02*
X119752619Y-125871666D01*
X120419285Y-126109761D01*
X119752619Y-127776428D02*
X119752619Y-127205000D01*
X119752619Y-127490714D02*
X120752619Y-127490714D01*
X120609761Y-127395476D01*
X120514523Y-127300238D01*
X120466904Y-127205000D01*
X118197857Y-105419285D02*
X118150238Y-105371666D01*
X118102619Y-105228809D01*
X118102619Y-105133571D01*
X118150238Y-104990714D01*
X118245476Y-104895476D01*
X118340714Y-104847857D01*
X118531190Y-104800238D01*
X118674047Y-104800238D01*
X118864523Y-104847857D01*
X118959761Y-104895476D01*
X119055000Y-104990714D01*
X119102619Y-105133571D01*
X119102619Y-105228809D01*
X119055000Y-105371666D01*
X119007380Y-105419285D01*
X118102619Y-105990714D02*
X118150238Y-105895476D01*
X118197857Y-105847857D01*
X118293095Y-105800238D01*
X118578809Y-105800238D01*
X118674047Y-105847857D01*
X118721666Y-105895476D01*
X118769285Y-105990714D01*
X118769285Y-106133571D01*
X118721666Y-106228809D01*
X118674047Y-106276428D01*
X118578809Y-106324047D01*
X118293095Y-106324047D01*
X118197857Y-106276428D01*
X118150238Y-106228809D01*
X118102619Y-106133571D01*
X118102619Y-105990714D01*
X118769285Y-106752619D02*
X117769285Y-106752619D01*
X118721666Y-106752619D02*
X118769285Y-106847857D01*
X118769285Y-107038333D01*
X118721666Y-107133571D01*
X118674047Y-107181190D01*
X118578809Y-107228809D01*
X118293095Y-107228809D01*
X118197857Y-107181190D01*
X118150238Y-107133571D01*
X118102619Y-107038333D01*
X118102619Y-106847857D01*
X118150238Y-106752619D01*
X118769285Y-107562142D02*
X118102619Y-107800238D01*
X118769285Y-108038333D02*
X118102619Y-107800238D01*
X117864523Y-107705000D01*
X117816904Y-107657380D01*
X117769285Y-107562142D01*
X118102619Y-108419285D02*
X118769285Y-108419285D01*
X118578809Y-108419285D02*
X118674047Y-108466904D01*
X118721666Y-108514523D01*
X118769285Y-108609761D01*
X118769285Y-108705000D01*
X118102619Y-109038333D02*
X118769285Y-109038333D01*
X119102619Y-109038333D02*
X119055000Y-108990714D01*
X119007380Y-109038333D01*
X119055000Y-109085952D01*
X119102619Y-109038333D01*
X119007380Y-109038333D01*
X118769285Y-109943095D02*
X117959761Y-109943095D01*
X117864523Y-109895476D01*
X117816904Y-109847857D01*
X117769285Y-109752619D01*
X117769285Y-109609761D01*
X117816904Y-109514523D01*
X118150238Y-109943095D02*
X118102619Y-109847857D01*
X118102619Y-109657380D01*
X118150238Y-109562142D01*
X118197857Y-109514523D01*
X118293095Y-109466904D01*
X118578809Y-109466904D01*
X118674047Y-109514523D01*
X118721666Y-109562142D01*
X118769285Y-109657380D01*
X118769285Y-109847857D01*
X118721666Y-109943095D01*
X118102619Y-110419285D02*
X119102619Y-110419285D01*
X118102619Y-110847857D02*
X118626428Y-110847857D01*
X118721666Y-110800238D01*
X118769285Y-110705000D01*
X118769285Y-110562142D01*
X118721666Y-110466904D01*
X118674047Y-110419285D01*
X118769285Y-111181190D02*
X118769285Y-111562142D01*
X119102619Y-111324047D02*
X118245476Y-111324047D01*
X118150238Y-111371666D01*
X118102619Y-111466904D01*
X118102619Y-111562142D01*
X118864523Y-113466904D02*
X118912142Y-113371666D01*
X118912142Y-113181190D01*
X118864523Y-113085952D01*
X118769285Y-112990714D01*
X118674047Y-112943095D01*
X118483571Y-112943095D01*
X118388333Y-112990714D01*
X118293095Y-113085952D01*
X118245476Y-113181190D01*
X118245476Y-113371666D01*
X118293095Y-113466904D01*
X119245476Y-113276428D02*
X119197857Y-113038333D01*
X119055000Y-112800238D01*
X118816904Y-112657380D01*
X118578809Y-112609761D01*
X118340714Y-112657380D01*
X118102619Y-112800238D01*
X117959761Y-113038333D01*
X117912142Y-113276428D01*
X117959761Y-113514523D01*
X118102619Y-113752619D01*
X118340714Y-113895476D01*
X118578809Y-113943095D01*
X118816904Y-113895476D01*
X119055000Y-113752619D01*
X119197857Y-113514523D01*
X119245476Y-113276428D01*
X119007380Y-115085952D02*
X119055000Y-115133571D01*
X119102619Y-115228809D01*
X119102619Y-115466904D01*
X119055000Y-115562142D01*
X119007380Y-115609761D01*
X118912142Y-115657380D01*
X118816904Y-115657380D01*
X118674047Y-115609761D01*
X118102619Y-115038333D01*
X118102619Y-115657380D01*
X119102619Y-116276428D02*
X119102619Y-116371666D01*
X119055000Y-116466904D01*
X119007380Y-116514523D01*
X118912142Y-116562142D01*
X118721666Y-116609761D01*
X118483571Y-116609761D01*
X118293095Y-116562142D01*
X118197857Y-116514523D01*
X118150238Y-116466904D01*
X118102619Y-116371666D01*
X118102619Y-116276428D01*
X118150238Y-116181190D01*
X118197857Y-116133571D01*
X118293095Y-116085952D01*
X118483571Y-116038333D01*
X118721666Y-116038333D01*
X118912142Y-116085952D01*
X119007380Y-116133571D01*
X119055000Y-116181190D01*
X119102619Y-116276428D01*
X119007380Y-116990714D02*
X119055000Y-117038333D01*
X119102619Y-117133571D01*
X119102619Y-117371666D01*
X119055000Y-117466904D01*
X119007380Y-117514523D01*
X118912142Y-117562142D01*
X118816904Y-117562142D01*
X118674047Y-117514523D01*
X118102619Y-116943095D01*
X118102619Y-117562142D01*
X118102619Y-118514523D02*
X118102619Y-117943095D01*
X118102619Y-118228809D02*
X119102619Y-118228809D01*
X118959761Y-118133571D01*
X118864523Y-118038333D01*
X118816904Y-117943095D01*
X118102619Y-119705000D02*
X119102619Y-119705000D01*
X119102619Y-119943095D01*
X119055000Y-120085952D01*
X118959761Y-120181190D01*
X118864523Y-120228809D01*
X118674047Y-120276428D01*
X118531190Y-120276428D01*
X118340714Y-120228809D01*
X118245476Y-120181190D01*
X118150238Y-120085952D01*
X118102619Y-119943095D01*
X118102619Y-119705000D01*
X118102619Y-121133571D02*
X118626428Y-121133571D01*
X118721666Y-121085952D01*
X118769285Y-120990714D01*
X118769285Y-120800238D01*
X118721666Y-120705000D01*
X118150238Y-121133571D02*
X118102619Y-121038333D01*
X118102619Y-120800238D01*
X118150238Y-120705000D01*
X118245476Y-120657380D01*
X118340714Y-120657380D01*
X118435952Y-120705000D01*
X118483571Y-120800238D01*
X118483571Y-121038333D01*
X118531190Y-121133571D01*
X118769285Y-121609761D02*
X118102619Y-121609761D01*
X118674047Y-121609761D02*
X118721666Y-121657380D01*
X118769285Y-121752619D01*
X118769285Y-121895476D01*
X118721666Y-121990714D01*
X118626428Y-122038333D01*
X118102619Y-122038333D01*
X119102619Y-123181190D02*
X118102619Y-123419285D01*
X118816904Y-123609761D01*
X118102619Y-123800238D01*
X119102619Y-124038333D01*
X118102619Y-124419285D02*
X118769285Y-124419285D01*
X119102619Y-124419285D02*
X119055000Y-124371666D01*
X119007380Y-124419285D01*
X119055000Y-124466904D01*
X119102619Y-124419285D01*
X119007380Y-124419285D01*
X118102619Y-125038333D02*
X118150238Y-124943095D01*
X118245476Y-124895476D01*
X119102619Y-124895476D01*
X118150238Y-125371666D02*
X118102619Y-125466904D01*
X118102619Y-125657380D01*
X118150238Y-125752619D01*
X118245476Y-125800238D01*
X118293095Y-125800238D01*
X118388333Y-125752619D01*
X118435952Y-125657380D01*
X118435952Y-125514523D01*
X118483571Y-125419285D01*
X118578809Y-125371666D01*
X118626428Y-125371666D01*
X118721666Y-125419285D01*
X118769285Y-125514523D01*
X118769285Y-125657380D01*
X118721666Y-125752619D01*
X118102619Y-126371666D02*
X118150238Y-126276428D01*
X118197857Y-126228809D01*
X118293095Y-126181190D01*
X118578809Y-126181190D01*
X118674047Y-126228809D01*
X118721666Y-126276428D01*
X118769285Y-126371666D01*
X118769285Y-126514523D01*
X118721666Y-126609761D01*
X118674047Y-126657380D01*
X118578809Y-126705000D01*
X118293095Y-126705000D01*
X118197857Y-126657380D01*
X118150238Y-126609761D01*
X118102619Y-126514523D01*
X118102619Y-126371666D01*
X118769285Y-127133571D02*
X118102619Y-127133571D01*
X118674047Y-127133571D02*
X118721666Y-127181190D01*
X118769285Y-127276428D01*
X118769285Y-127419285D01*
X118721666Y-127514523D01*
X118626428Y-127562142D01*
X118102619Y-127562142D01*
D12*
G36*
X120800885Y-132051005D02*
G01*
X120746526Y-132278170D01*
X120654818Y-132487183D01*
X120524634Y-132680804D01*
X120407435Y-132811241D01*
X120315489Y-132899237D01*
X120234801Y-132965096D01*
X120150212Y-133019762D01*
X120046563Y-133074178D01*
X120036167Y-133079250D01*
X119892386Y-133144406D01*
X119767069Y-133188523D01*
X119644688Y-133215107D01*
X119509718Y-133227667D01*
X119369417Y-133229915D01*
X119248021Y-133227025D01*
X119152751Y-133218626D01*
X119067526Y-133202457D01*
X118976263Y-133176254D01*
X118967250Y-133173342D01*
X118744497Y-133080099D01*
X118540897Y-132953479D01*
X118360900Y-132797832D01*
X118208957Y-132617506D01*
X118089516Y-132416851D01*
X118021877Y-132249333D01*
X117995852Y-132138718D01*
X117977906Y-132000395D01*
X117968518Y-131848304D01*
X117968164Y-131696382D01*
X117977321Y-131558568D01*
X117994715Y-131455583D01*
X118071459Y-131233782D01*
X118185048Y-131026740D01*
X118331014Y-130839984D01*
X118504888Y-130679041D01*
X118702202Y-130549437D01*
X118745460Y-130527083D01*
X118932958Y-130445630D01*
X119108335Y-130394938D01*
X119285146Y-130372113D01*
X119390583Y-130372910D01*
X119390583Y-130461634D01*
X119275046Y-130463146D01*
X119188143Y-130468104D01*
X119116197Y-130478545D01*
X119045534Y-130496507D01*
X118962476Y-130524026D01*
X118955732Y-130526402D01*
X118855185Y-130566449D01*
X118752747Y-130614626D01*
X118667691Y-130661733D01*
X118654305Y-130670320D01*
X118493378Y-130799144D01*
X118346518Y-130959067D01*
X118221193Y-131139767D01*
X118124871Y-131330922D01*
X118078499Y-131466167D01*
X118057659Y-131584790D01*
X118049584Y-131729424D01*
X118053609Y-131885935D01*
X118069068Y-132040188D01*
X118095293Y-132178047D01*
X118115223Y-132245060D01*
X118146401Y-132327364D01*
X118177457Y-132400040D01*
X118202124Y-132448520D01*
X118203971Y-132451435D01*
X118237976Y-132503333D01*
X119099542Y-132503333D01*
X119111296Y-132444563D01*
X119149881Y-132350810D01*
X119218944Y-132277275D01*
X119310061Y-132227485D01*
X119414807Y-132204965D01*
X119466438Y-132208851D01*
X119466438Y-132287233D01*
X119385401Y-132292835D01*
X119291743Y-132333048D01*
X119224437Y-132400212D01*
X119187056Y-132485600D01*
X119183169Y-132580482D01*
X119216349Y-132676130D01*
X119223623Y-132688247D01*
X119291564Y-132760181D01*
X119377121Y-132799184D01*
X119470235Y-132804361D01*
X119560849Y-132774817D01*
X119626209Y-132724076D01*
X119672982Y-132666062D01*
X119693709Y-132611310D01*
X119697500Y-132557873D01*
X119679592Y-132454853D01*
X119630490Y-132371482D01*
X119557128Y-132313646D01*
X119466438Y-132287233D01*
X119466438Y-132208851D01*
X119524756Y-132213241D01*
X119601043Y-132239596D01*
X119686735Y-132301615D01*
X119745518Y-132387587D01*
X119776610Y-132488156D01*
X119779232Y-132593968D01*
X119752603Y-132695667D01*
X119695941Y-132783898D01*
X119649853Y-132824617D01*
X119568977Y-132861746D01*
X119467559Y-132879840D01*
X119363862Y-132876778D01*
X119309077Y-132864210D01*
X119229298Y-132820011D01*
X119161024Y-132750603D01*
X119117502Y-132670458D01*
X119111651Y-132648544D01*
X119099542Y-132588000D01*
X118699276Y-132588000D01*
X118549877Y-132587990D01*
X118440142Y-132589694D01*
X118367412Y-132595714D01*
X118329027Y-132608650D01*
X118322328Y-132631103D01*
X118344655Y-132665675D01*
X118393348Y-132714965D01*
X118465748Y-132781576D01*
X118484138Y-132798396D01*
X118653209Y-132928852D01*
X118844258Y-133033905D01*
X119047320Y-133109511D01*
X119252428Y-133151623D01*
X119372847Y-133159132D01*
X119558125Y-133144078D01*
X119753746Y-133100425D01*
X119943078Y-133032204D01*
X119993833Y-133008694D01*
X120179859Y-132895146D01*
X120348375Y-132748097D01*
X120493558Y-132574734D01*
X120609585Y-132382243D01*
X120690633Y-132177813D01*
X120702734Y-132133761D01*
X120723315Y-132012426D01*
X120732557Y-131867013D01*
X120730477Y-131714228D01*
X120717095Y-131570773D01*
X120702051Y-131489200D01*
X120631163Y-131277302D01*
X120523311Y-131076289D01*
X120383693Y-130893262D01*
X120217509Y-130735325D01*
X120078809Y-130637760D01*
X120015000Y-130598955D01*
X120015000Y-130915833D01*
X120205500Y-130915833D01*
X120205500Y-131000500D01*
X119739833Y-131000500D01*
X119739833Y-131127500D01*
X120205500Y-131127500D01*
X120205500Y-131000500D01*
X120205500Y-130915833D01*
X120290167Y-130915833D01*
X120290167Y-131212167D01*
X119655167Y-131212167D01*
X119655167Y-130915833D01*
X119930333Y-130915833D01*
X119930334Y-130737642D01*
X119930334Y-130559451D01*
X119787458Y-130510101D01*
X119714904Y-130487574D01*
X119645389Y-130473048D01*
X119566269Y-130464978D01*
X119464899Y-130461821D01*
X119390583Y-130461634D01*
X119390583Y-130372910D01*
X119464667Y-130373471D01*
X119709014Y-130406262D01*
X119931720Y-130474533D01*
X120136683Y-130580043D01*
X120327796Y-130724553D01*
X120406583Y-130799018D01*
X120565976Y-130983959D01*
X120685322Y-131179986D01*
X120766088Y-131390672D01*
X120809744Y-131619593D01*
X120819021Y-131802927D01*
X120800885Y-132051005D01*
G37*
X120800885Y-132051005D02*
X120746526Y-132278170D01*
X120654818Y-132487183D01*
X120524634Y-132680804D01*
X120407435Y-132811241D01*
X120315489Y-132899237D01*
X120234801Y-132965096D01*
X120150212Y-133019762D01*
X120046563Y-133074178D01*
X120036167Y-133079250D01*
X119892386Y-133144406D01*
X119767069Y-133188523D01*
X119644688Y-133215107D01*
X119509718Y-133227667D01*
X119369417Y-133229915D01*
X119248021Y-133227025D01*
X119152751Y-133218626D01*
X119067526Y-133202457D01*
X118976263Y-133176254D01*
X118967250Y-133173342D01*
X118744497Y-133080099D01*
X118540897Y-132953479D01*
X118360900Y-132797832D01*
X118208957Y-132617506D01*
X118089516Y-132416851D01*
X118021877Y-132249333D01*
X117995852Y-132138718D01*
X117977906Y-132000395D01*
X117968518Y-131848304D01*
X117968164Y-131696382D01*
X117977321Y-131558568D01*
X117994715Y-131455583D01*
X118071459Y-131233782D01*
X118185048Y-131026740D01*
X118331014Y-130839984D01*
X118504888Y-130679041D01*
X118702202Y-130549437D01*
X118745460Y-130527083D01*
X118932958Y-130445630D01*
X119108335Y-130394938D01*
X119285146Y-130372113D01*
X119390583Y-130372910D01*
X119390583Y-130461634D01*
X119275046Y-130463146D01*
X119188143Y-130468104D01*
X119116197Y-130478545D01*
X119045534Y-130496507D01*
X118962476Y-130524026D01*
X118955732Y-130526402D01*
X118855185Y-130566449D01*
X118752747Y-130614626D01*
X118667691Y-130661733D01*
X118654305Y-130670320D01*
X118493378Y-130799144D01*
X118346518Y-130959067D01*
X118221193Y-131139767D01*
X118124871Y-131330922D01*
X118078499Y-131466167D01*
X118057659Y-131584790D01*
X118049584Y-131729424D01*
X118053609Y-131885935D01*
X118069068Y-132040188D01*
X118095293Y-132178047D01*
X118115223Y-132245060D01*
X118146401Y-132327364D01*
X118177457Y-132400040D01*
X118202124Y-132448520D01*
X118203971Y-132451435D01*
X118237976Y-132503333D01*
X119099542Y-132503333D01*
X119111296Y-132444563D01*
X119149881Y-132350810D01*
X119218944Y-132277275D01*
X119310061Y-132227485D01*
X119414807Y-132204965D01*
X119466438Y-132208851D01*
X119466438Y-132287233D01*
X119385401Y-132292835D01*
X119291743Y-132333048D01*
X119224437Y-132400212D01*
X119187056Y-132485600D01*
X119183169Y-132580482D01*
X119216349Y-132676130D01*
X119223623Y-132688247D01*
X119291564Y-132760181D01*
X119377121Y-132799184D01*
X119470235Y-132804361D01*
X119560849Y-132774817D01*
X119626209Y-132724076D01*
X119672982Y-132666062D01*
X119693709Y-132611310D01*
X119697500Y-132557873D01*
X119679592Y-132454853D01*
X119630490Y-132371482D01*
X119557128Y-132313646D01*
X119466438Y-132287233D01*
X119466438Y-132208851D01*
X119524756Y-132213241D01*
X119601043Y-132239596D01*
X119686735Y-132301615D01*
X119745518Y-132387587D01*
X119776610Y-132488156D01*
X119779232Y-132593968D01*
X119752603Y-132695667D01*
X119695941Y-132783898D01*
X119649853Y-132824617D01*
X119568977Y-132861746D01*
X119467559Y-132879840D01*
X119363862Y-132876778D01*
X119309077Y-132864210D01*
X119229298Y-132820011D01*
X119161024Y-132750603D01*
X119117502Y-132670458D01*
X119111651Y-132648544D01*
X119099542Y-132588000D01*
X118699276Y-132588000D01*
X118549877Y-132587990D01*
X118440142Y-132589694D01*
X118367412Y-132595714D01*
X118329027Y-132608650D01*
X118322328Y-132631103D01*
X118344655Y-132665675D01*
X118393348Y-132714965D01*
X118465748Y-132781576D01*
X118484138Y-132798396D01*
X118653209Y-132928852D01*
X118844258Y-133033905D01*
X119047320Y-133109511D01*
X119252428Y-133151623D01*
X119372847Y-133159132D01*
X119558125Y-133144078D01*
X119753746Y-133100425D01*
X119943078Y-133032204D01*
X119993833Y-133008694D01*
X120179859Y-132895146D01*
X120348375Y-132748097D01*
X120493558Y-132574734D01*
X120609585Y-132382243D01*
X120690633Y-132177813D01*
X120702734Y-132133761D01*
X120723315Y-132012426D01*
X120732557Y-131867013D01*
X120730477Y-131714228D01*
X120717095Y-131570773D01*
X120702051Y-131489200D01*
X120631163Y-131277302D01*
X120523311Y-131076289D01*
X120383693Y-130893262D01*
X120217509Y-130735325D01*
X120078809Y-130637760D01*
X120015000Y-130598955D01*
X120015000Y-130915833D01*
X120205500Y-130915833D01*
X120205500Y-131000500D01*
X119739833Y-131000500D01*
X119739833Y-131127500D01*
X120205500Y-131127500D01*
X120205500Y-131000500D01*
X120205500Y-130915833D01*
X120290167Y-130915833D01*
X120290167Y-131212167D01*
X119655167Y-131212167D01*
X119655167Y-130915833D01*
X119930333Y-130915833D01*
X119930334Y-130737642D01*
X119930334Y-130559451D01*
X119787458Y-130510101D01*
X119714904Y-130487574D01*
X119645389Y-130473048D01*
X119566269Y-130464978D01*
X119464899Y-130461821D01*
X119390583Y-130461634D01*
X119390583Y-130372910D01*
X119464667Y-130373471D01*
X119709014Y-130406262D01*
X119931720Y-130474533D01*
X120136683Y-130580043D01*
X120327796Y-130724553D01*
X120406583Y-130799018D01*
X120565976Y-130983959D01*
X120685322Y-131179986D01*
X120766088Y-131390672D01*
X120809744Y-131619593D01*
X120819021Y-131802927D01*
X120800885Y-132051005D01*
G36*
X120543657Y-134414343D02*
G01*
X120541589Y-134577805D01*
X120537152Y-134709814D01*
X120529536Y-134815807D01*
X120517932Y-134901223D01*
X120501528Y-134971497D01*
X120479516Y-135032066D01*
X120451085Y-135088368D01*
X120415424Y-135145841D01*
X120402452Y-135165222D01*
X120289431Y-135297621D01*
X120146667Y-135403697D01*
X119972156Y-135484639D01*
X119772945Y-135539797D01*
X119552731Y-135569444D01*
X119333716Y-135569160D01*
X119121149Y-135540855D01*
X118920280Y-135486437D01*
X118736358Y-135407816D01*
X118574632Y-135306901D01*
X118440351Y-135185601D01*
X118338764Y-135045827D01*
X118320731Y-135011583D01*
X118306100Y-134980782D01*
X118294456Y-134951147D01*
X118285400Y-134917538D01*
X118278537Y-134874814D01*
X118273470Y-134817837D01*
X118269802Y-134741464D01*
X118267136Y-134640558D01*
X118265076Y-134509978D01*
X118263225Y-134344583D01*
X118262329Y-134254875D01*
X118255909Y-133604000D01*
X118660333Y-133604000D01*
X118660333Y-134090833D01*
X118660798Y-134360708D01*
X118662320Y-134484176D01*
X118667060Y-134574460D01*
X118676019Y-134640653D01*
X118690197Y-134691847D01*
X118699823Y-134715250D01*
X118776057Y-134832459D01*
X118886570Y-134926562D01*
X119029587Y-134996642D01*
X119203338Y-135041785D01*
X119366105Y-135059479D01*
X119566782Y-135058306D01*
X119738986Y-135032845D01*
X119880397Y-134983700D01*
X119988698Y-134911478D01*
X120008698Y-134891646D01*
X120053917Y-134834678D01*
X120087207Y-134769753D01*
X120110528Y-134689119D01*
X120125841Y-134585027D01*
X120135107Y-134449727D01*
X120137662Y-134381875D01*
X120146804Y-134090833D01*
X118660333Y-134090833D01*
X118660333Y-133604000D01*
X120544167Y-133604000D01*
X120544167Y-134213991D01*
X120543657Y-134414343D01*
G37*
X120543657Y-134414343D02*
X120541589Y-134577805D01*
X120537152Y-134709814D01*
X120529536Y-134815807D01*
X120517932Y-134901223D01*
X120501528Y-134971497D01*
X120479516Y-135032066D01*
X120451085Y-135088368D01*
X120415424Y-135145841D01*
X120402452Y-135165222D01*
X120289431Y-135297621D01*
X120146667Y-135403697D01*
X119972156Y-135484639D01*
X119772945Y-135539797D01*
X119552731Y-135569444D01*
X119333716Y-135569160D01*
X119121149Y-135540855D01*
X118920280Y-135486437D01*
X118736358Y-135407816D01*
X118574632Y-135306901D01*
X118440351Y-135185601D01*
X118338764Y-135045827D01*
X118320731Y-135011583D01*
X118306100Y-134980782D01*
X118294456Y-134951147D01*
X118285400Y-134917538D01*
X118278537Y-134874814D01*
X118273470Y-134817837D01*
X118269802Y-134741464D01*
X118267136Y-134640558D01*
X118265076Y-134509978D01*
X118263225Y-134344583D01*
X118262329Y-134254875D01*
X118255909Y-133604000D01*
X118660333Y-133604000D01*
X118660333Y-134090833D01*
X118660798Y-134360708D01*
X118662320Y-134484176D01*
X118667060Y-134574460D01*
X118676019Y-134640653D01*
X118690197Y-134691847D01*
X118699823Y-134715250D01*
X118776057Y-134832459D01*
X118886570Y-134926562D01*
X119029587Y-134996642D01*
X119203338Y-135041785D01*
X119366105Y-135059479D01*
X119566782Y-135058306D01*
X119738986Y-135032845D01*
X119880397Y-134983700D01*
X119988698Y-134911478D01*
X120008698Y-134891646D01*
X120053917Y-134834678D01*
X120087207Y-134769753D01*
X120110528Y-134689119D01*
X120125841Y-134585027D01*
X120135107Y-134449727D01*
X120137662Y-134381875D01*
X120146804Y-134090833D01*
X118660333Y-134090833D01*
X118660333Y-133604000D01*
X120544167Y-133604000D01*
X120544167Y-134213991D01*
X120543657Y-134414343D01*
G36*
X119844828Y-136315146D02*
G01*
X119642560Y-136367268D01*
X119475420Y-136411829D01*
X119344603Y-136448478D01*
X119251305Y-136476867D01*
X119196721Y-136496647D01*
X119182046Y-136507468D01*
X119183369Y-136508301D01*
X119210234Y-136515385D01*
X119272197Y-136529852D01*
X119363153Y-136550384D01*
X119477001Y-136575661D01*
X119607635Y-136604362D01*
X119748953Y-136635170D01*
X119894852Y-136666763D01*
X120039227Y-136697824D01*
X120175976Y-136727032D01*
X120298995Y-136753068D01*
X120402180Y-136774612D01*
X120479428Y-136790346D01*
X120524636Y-136798949D01*
X120533473Y-136800167D01*
X120537531Y-136819994D01*
X120540882Y-136874123D01*
X120543200Y-136954524D01*
X120544158Y-137053168D01*
X120544167Y-137063755D01*
X120544167Y-137327343D01*
X120475375Y-137346019D01*
X120437796Y-137355417D01*
X120364725Y-137372977D01*
X120261921Y-137397344D01*
X120135141Y-137427159D01*
X119990142Y-137461067D01*
X119832683Y-137497708D01*
X119777981Y-137510398D01*
X119622278Y-137546921D01*
X119481326Y-137580819D01*
X119360017Y-137610847D01*
X119263242Y-137635764D01*
X119195892Y-137654326D01*
X119162860Y-137665289D01*
X119160408Y-137667342D01*
X119182865Y-137674994D01*
X119241534Y-137691540D01*
X119331531Y-137715699D01*
X119447977Y-137746187D01*
X119585990Y-137781723D01*
X119740687Y-137821024D01*
X119852510Y-137849142D01*
X120533583Y-138019700D01*
X120539540Y-138279404D01*
X120541604Y-138387873D01*
X120541342Y-138460588D01*
X120537915Y-138504100D01*
X120530484Y-138524964D01*
X120518210Y-138529731D01*
X120507790Y-138527473D01*
X120480185Y-138519535D01*
X120416523Y-138501540D01*
X120321524Y-138474808D01*
X120199907Y-138440658D01*
X120056392Y-138400411D01*
X119895697Y-138355386D01*
X119722543Y-138306904D01*
X119541648Y-138256285D01*
X119357732Y-138204848D01*
X119175514Y-138153913D01*
X118999713Y-138104800D01*
X118835049Y-138058829D01*
X118686242Y-138017321D01*
X118558009Y-137981594D01*
X118455072Y-137952969D01*
X118382149Y-137932766D01*
X118345515Y-137922722D01*
X118258167Y-137899201D01*
X118258167Y-137655936D01*
X118259694Y-137540544D01*
X118264583Y-137463000D01*
X118273294Y-137418922D01*
X118284625Y-137404289D01*
X118310908Y-137397453D01*
X118373314Y-137381912D01*
X118466817Y-137358899D01*
X118586389Y-137329644D01*
X118727004Y-137295377D01*
X118883633Y-137257330D01*
X118995069Y-137230328D01*
X119679054Y-137064750D01*
X118973902Y-136895015D01*
X118268750Y-136725281D01*
X118262773Y-136488348D01*
X118256795Y-136251415D01*
X118368606Y-136219379D01*
X118498653Y-136182245D01*
X118649715Y-136139326D01*
X118817398Y-136091850D01*
X118997308Y-136041050D01*
X119185052Y-135988156D01*
X119376234Y-135934400D01*
X119566461Y-135881011D01*
X119751339Y-135829221D01*
X119926474Y-135780261D01*
X120087471Y-135735361D01*
X120229936Y-135695753D01*
X120349476Y-135662666D01*
X120441697Y-135637333D01*
X120502203Y-135620984D01*
X120526602Y-135614850D01*
X120526805Y-135614833D01*
X120533421Y-135634653D01*
X120538875Y-135688738D01*
X120542633Y-135769021D01*
X120544157Y-135867439D01*
X120544167Y-135876092D01*
X120544167Y-136137351D01*
X119844828Y-136315146D01*
G37*
X119844828Y-136315146D02*
X119642560Y-136367268D01*
X119475420Y-136411829D01*
X119344603Y-136448478D01*
X119251305Y-136476867D01*
X119196721Y-136496647D01*
X119182046Y-136507468D01*
X119183369Y-136508301D01*
X119210234Y-136515385D01*
X119272197Y-136529852D01*
X119363153Y-136550384D01*
X119477001Y-136575661D01*
X119607635Y-136604362D01*
X119748953Y-136635170D01*
X119894852Y-136666763D01*
X120039227Y-136697824D01*
X120175976Y-136727032D01*
X120298995Y-136753068D01*
X120402180Y-136774612D01*
X120479428Y-136790346D01*
X120524636Y-136798949D01*
X120533473Y-136800167D01*
X120537531Y-136819994D01*
X120540882Y-136874123D01*
X120543200Y-136954524D01*
X120544158Y-137053168D01*
X120544167Y-137063755D01*
X120544167Y-137327343D01*
X120475375Y-137346019D01*
X120437796Y-137355417D01*
X120364725Y-137372977D01*
X120261921Y-137397344D01*
X120135141Y-137427159D01*
X119990142Y-137461067D01*
X119832683Y-137497708D01*
X119777981Y-137510398D01*
X119622278Y-137546921D01*
X119481326Y-137580819D01*
X119360017Y-137610847D01*
X119263242Y-137635764D01*
X119195892Y-137654326D01*
X119162860Y-137665289D01*
X119160408Y-137667342D01*
X119182865Y-137674994D01*
X119241534Y-137691540D01*
X119331531Y-137715699D01*
X119447977Y-137746187D01*
X119585990Y-137781723D01*
X119740687Y-137821024D01*
X119852510Y-137849142D01*
X120533583Y-138019700D01*
X120539540Y-138279404D01*
X120541604Y-138387873D01*
X120541342Y-138460588D01*
X120537915Y-138504100D01*
X120530484Y-138524964D01*
X120518210Y-138529731D01*
X120507790Y-138527473D01*
X120480185Y-138519535D01*
X120416523Y-138501540D01*
X120321524Y-138474808D01*
X120199907Y-138440658D01*
X120056392Y-138400411D01*
X119895697Y-138355386D01*
X119722543Y-138306904D01*
X119541648Y-138256285D01*
X119357732Y-138204848D01*
X119175514Y-138153913D01*
X118999713Y-138104800D01*
X118835049Y-138058829D01*
X118686242Y-138017321D01*
X118558009Y-137981594D01*
X118455072Y-137952969D01*
X118382149Y-137932766D01*
X118345515Y-137922722D01*
X118258167Y-137899201D01*
X118258167Y-137655936D01*
X118259694Y-137540544D01*
X118264583Y-137463000D01*
X118273294Y-137418922D01*
X118284625Y-137404289D01*
X118310908Y-137397453D01*
X118373314Y-137381912D01*
X118466817Y-137358899D01*
X118586389Y-137329644D01*
X118727004Y-137295377D01*
X118883633Y-137257330D01*
X118995069Y-137230328D01*
X119679054Y-137064750D01*
X118973902Y-136895015D01*
X118268750Y-136725281D01*
X118262773Y-136488348D01*
X118256795Y-136251415D01*
X118368606Y-136219379D01*
X118498653Y-136182245D01*
X118649715Y-136139326D01*
X118817398Y-136091850D01*
X118997308Y-136041050D01*
X119185052Y-135988156D01*
X119376234Y-135934400D01*
X119566461Y-135881011D01*
X119751339Y-135829221D01*
X119926474Y-135780261D01*
X120087471Y-135735361D01*
X120229936Y-135695753D01*
X120349476Y-135662666D01*
X120441697Y-135637333D01*
X120502203Y-135620984D01*
X120526602Y-135614850D01*
X120526805Y-135614833D01*
X120533421Y-135634653D01*
X120538875Y-135688738D01*
X120542633Y-135769021D01*
X120544157Y-135867439D01*
X120544167Y-135876092D01*
X120544167Y-136137351D01*
X119844828Y-136315146D01*
G36*
X120142000Y-132101167D02*
G01*
X120142000Y-132248281D01*
X120145807Y-132341057D01*
X120157611Y-132395463D01*
X120170660Y-132412323D01*
X120219521Y-132463187D01*
X120235143Y-132530393D01*
X120222186Y-132583113D01*
X120179820Y-132630119D01*
X120119759Y-132650915D01*
X120057309Y-132643903D01*
X120007772Y-132607487D01*
X120006428Y-132605615D01*
X119976394Y-132542549D01*
X119983796Y-132483730D01*
X120015000Y-132434057D01*
X120040422Y-132389514D01*
X120053565Y-132329751D01*
X120057333Y-132241508D01*
X120057334Y-132240703D01*
X120057333Y-132101167D01*
X119803333Y-132101167D01*
X119803333Y-131847167D01*
X119549333Y-131847167D01*
X119549333Y-132037667D01*
X119231833Y-132037667D01*
X119231833Y-131000500D01*
X119126000Y-131000500D01*
X119126000Y-132037667D01*
X118787333Y-132037667D01*
X118787333Y-131423833D01*
X118469833Y-131423833D01*
X118469833Y-131487333D01*
X118476360Y-131533655D01*
X118500985Y-131550077D01*
X118513129Y-131550833D01*
X118557280Y-131565185D01*
X118605538Y-131600008D01*
X118608379Y-131602788D01*
X118636769Y-131636874D01*
X118652542Y-131676282D01*
X118659205Y-131734334D01*
X118660333Y-131800181D01*
X118654522Y-131902490D01*
X118632803Y-131971205D01*
X118588747Y-132012514D01*
X118515924Y-132032602D01*
X118413542Y-132037667D01*
X118329866Y-132035483D01*
X118276608Y-132027116D01*
X118241993Y-132009843D01*
X118225333Y-131994135D01*
X118199369Y-131942529D01*
X118182775Y-131865055D01*
X118176676Y-131777366D01*
X118182192Y-131695116D01*
X118199617Y-131635500D01*
X118247750Y-131586823D01*
X118306317Y-131562975D01*
X118353656Y-131548938D01*
X118376821Y-131528928D01*
X118384448Y-131489616D01*
X118385167Y-131441267D01*
X118385167Y-131339167D01*
X118449523Y-131339167D01*
X118449523Y-131637052D01*
X118379026Y-131637364D01*
X118317612Y-131645833D01*
X118283567Y-131660900D01*
X118267564Y-131698939D01*
X118259719Y-131761644D01*
X118260031Y-131832140D01*
X118268500Y-131893555D01*
X118283567Y-131927600D01*
X118319145Y-131942193D01*
X118380403Y-131950863D01*
X118451000Y-131952817D01*
X118514596Y-131947261D01*
X118542186Y-131940152D01*
X118561219Y-131913008D01*
X118572876Y-131858507D01*
X118576740Y-131791050D01*
X118572395Y-131725038D01*
X118559424Y-131674871D01*
X118550267Y-131660900D01*
X118512228Y-131644897D01*
X118449523Y-131637052D01*
X118449523Y-131339167D01*
X118787333Y-131339167D01*
X118787333Y-130725333D01*
X119041333Y-130725333D01*
X119041333Y-130810000D01*
X118872000Y-130810000D01*
X118872000Y-131953000D01*
X119041333Y-131953000D01*
X119041333Y-130810000D01*
X119041333Y-130725333D01*
X119126000Y-130725333D01*
X119126000Y-130820583D01*
X119128193Y-130879360D01*
X119138974Y-130907208D01*
X119164644Y-130915469D01*
X119178917Y-130915833D01*
X119211571Y-130911885D01*
X119227042Y-130892480D01*
X119231631Y-130846274D01*
X119231833Y-130820583D01*
X119231833Y-130725333D01*
X119464667Y-130725333D01*
X119464667Y-130810000D01*
X119316500Y-130810000D01*
X119316500Y-131953000D01*
X119464667Y-131953000D01*
X119464667Y-130810000D01*
X119464667Y-130725333D01*
X119549333Y-130725333D01*
X119549333Y-131762500D01*
X119803333Y-131762500D01*
X119803333Y-131466167D01*
X120332500Y-131466167D01*
X120332500Y-131550833D01*
X119888000Y-131550833D01*
X119888000Y-132016500D01*
X120112847Y-132016500D01*
X120112847Y-132487093D01*
X120075747Y-132496396D01*
X120057383Y-132522849D01*
X120057333Y-132524500D01*
X120074322Y-132550636D01*
X120090506Y-132559725D01*
X120129633Y-132560618D01*
X120155014Y-132539568D01*
X120154425Y-132509239D01*
X120147656Y-132500523D01*
X120112847Y-132487093D01*
X120112847Y-132016500D01*
X120332500Y-132016500D01*
X120332500Y-131550833D01*
X120332500Y-131466167D01*
X120417167Y-131466167D01*
X120417167Y-132101167D01*
X120142000Y-132101167D01*
G37*
X120142000Y-132101167D02*
X120142000Y-132248281D01*
X120145807Y-132341057D01*
X120157611Y-132395463D01*
X120170660Y-132412323D01*
X120219521Y-132463187D01*
X120235143Y-132530393D01*
X120222186Y-132583113D01*
X120179820Y-132630119D01*
X120119759Y-132650915D01*
X120057309Y-132643903D01*
X120007772Y-132607487D01*
X120006428Y-132605615D01*
X119976394Y-132542549D01*
X119983796Y-132483730D01*
X120015000Y-132434057D01*
X120040422Y-132389514D01*
X120053565Y-132329751D01*
X120057333Y-132241508D01*
X120057334Y-132240703D01*
X120057333Y-132101167D01*
X119803333Y-132101167D01*
X119803333Y-131847167D01*
X119549333Y-131847167D01*
X119549333Y-132037667D01*
X119231833Y-132037667D01*
X119231833Y-131000500D01*
X119126000Y-131000500D01*
X119126000Y-132037667D01*
X118787333Y-132037667D01*
X118787333Y-131423833D01*
X118469833Y-131423833D01*
X118469833Y-131487333D01*
X118476360Y-131533655D01*
X118500985Y-131550077D01*
X118513129Y-131550833D01*
X118557280Y-131565185D01*
X118605538Y-131600008D01*
X118608379Y-131602788D01*
X118636769Y-131636874D01*
X118652542Y-131676282D01*
X118659205Y-131734334D01*
X118660333Y-131800181D01*
X118654522Y-131902490D01*
X118632803Y-131971205D01*
X118588747Y-132012514D01*
X118515924Y-132032602D01*
X118413542Y-132037667D01*
X118329866Y-132035483D01*
X118276608Y-132027116D01*
X118241993Y-132009843D01*
X118225333Y-131994135D01*
X118199369Y-131942529D01*
X118182775Y-131865055D01*
X118176676Y-131777366D01*
X118182192Y-131695116D01*
X118199617Y-131635500D01*
X118247750Y-131586823D01*
X118306317Y-131562975D01*
X118353656Y-131548938D01*
X118376821Y-131528928D01*
X118384448Y-131489616D01*
X118385167Y-131441267D01*
X118385167Y-131339167D01*
X118449523Y-131339167D01*
X118449523Y-131637052D01*
X118379026Y-131637364D01*
X118317612Y-131645833D01*
X118283567Y-131660900D01*
X118267564Y-131698939D01*
X118259719Y-131761644D01*
X118260031Y-131832140D01*
X118268500Y-131893555D01*
X118283567Y-131927600D01*
X118319145Y-131942193D01*
X118380403Y-131950863D01*
X118451000Y-131952817D01*
X118514596Y-131947261D01*
X118542186Y-131940152D01*
X118561219Y-131913008D01*
X118572876Y-131858507D01*
X118576740Y-131791050D01*
X118572395Y-131725038D01*
X118559424Y-131674871D01*
X118550267Y-131660900D01*
X118512228Y-131644897D01*
X118449523Y-131637052D01*
X118449523Y-131339167D01*
X118787333Y-131339167D01*
X118787333Y-130725333D01*
X119041333Y-130725333D01*
X119041333Y-130810000D01*
X118872000Y-130810000D01*
X118872000Y-131953000D01*
X119041333Y-131953000D01*
X119041333Y-130810000D01*
X119041333Y-130725333D01*
X119126000Y-130725333D01*
X119126000Y-130820583D01*
X119128193Y-130879360D01*
X119138974Y-130907208D01*
X119164644Y-130915469D01*
X119178917Y-130915833D01*
X119211571Y-130911885D01*
X119227042Y-130892480D01*
X119231631Y-130846274D01*
X119231833Y-130820583D01*
X119231833Y-130725333D01*
X119464667Y-130725333D01*
X119464667Y-130810000D01*
X119316500Y-130810000D01*
X119316500Y-131953000D01*
X119464667Y-131953000D01*
X119464667Y-130810000D01*
X119464667Y-130725333D01*
X119549333Y-130725333D01*
X119549333Y-131762500D01*
X119803333Y-131762500D01*
X119803333Y-131466167D01*
X120332500Y-131466167D01*
X120332500Y-131550833D01*
X119888000Y-131550833D01*
X119888000Y-132016500D01*
X120112847Y-132016500D01*
X120112847Y-132487093D01*
X120075747Y-132496396D01*
X120057383Y-132522849D01*
X120057333Y-132524500D01*
X120074322Y-132550636D01*
X120090506Y-132559725D01*
X120129633Y-132560618D01*
X120155014Y-132539568D01*
X120154425Y-132509239D01*
X120147656Y-132500523D01*
X120112847Y-132487093D01*
X120112847Y-132016500D01*
X120332500Y-132016500D01*
X120332500Y-131550833D01*
X120332500Y-131466167D01*
X120417167Y-131466167D01*
X120417167Y-132101167D01*
X120142000Y-132101167D01*
D13*
X180435000Y-104875000D02*
X180435000Y-102135000D01*
X180435000Y-102135000D02*
X173895000Y-102135000D01*
X173895000Y-102135000D02*
X173895000Y-104875000D01*
X173895000Y-104875000D02*
X180435000Y-104875000D01*
X181205000Y-103505000D02*
X180435000Y-103505000D01*
X173125000Y-103505000D02*
X173895000Y-103505000D01*
X193190000Y-110105000D02*
X195430000Y-110105000D01*
X193190000Y-109865000D02*
X195430000Y-109865000D01*
X193190000Y-109985000D02*
X195430000Y-109985000D01*
X194310000Y-105815000D02*
X194310000Y-106465000D01*
X194310000Y-111355000D02*
X194310000Y-110705000D01*
X193190000Y-106465000D02*
X193190000Y-110705000D01*
X195430000Y-106465000D02*
X193190000Y-106465000D01*
X195430000Y-110705000D02*
X195430000Y-106465000D01*
X193190000Y-110705000D02*
X195430000Y-110705000D01*
X188026522Y-108651522D02*
G75*
G03*
X189865000Y-113090000I1838478J-1838478D01*
G01*
X191703478Y-108651522D02*
G75*
G02*
X189865000Y-113090000I-1838478J-1838478D01*
G01*
X191665000Y-108640000D02*
X188065000Y-108640000D01*
D14*
X187870000Y-130935000D02*
X187870000Y-130435000D01*
X187870000Y-130935000D02*
X188370000Y-130935000D01*
X187870000Y-115435000D02*
X187870000Y-115935000D01*
X187870000Y-115435000D02*
X188370000Y-115435000D01*
X205870000Y-130935000D02*
X205870000Y-130435000D01*
X205870000Y-130935000D02*
X205370000Y-130935000D01*
X205870000Y-115435000D02*
X205870000Y-115935000D01*
X205870000Y-115435000D02*
X205370000Y-115435000D01*
D13*
X188810000Y-106570000D02*
X188495000Y-106570000D01*
X191235000Y-106570000D02*
X190920000Y-106570000D01*
X188810000Y-101630000D02*
X188495000Y-101630000D01*
X191235000Y-101630000D02*
X190920000Y-101630000D01*
X188495000Y-101630000D02*
X188495000Y-106570000D01*
X191235000Y-101630000D02*
X191235000Y-106570000D01*
X183300000Y-135800000D02*
X183966000Y-135800000D01*
X180524000Y-135800000D02*
X181190000Y-135800000D01*
X183300000Y-141140000D02*
X183966000Y-141140000D01*
X180524000Y-141140000D02*
X181190000Y-141140000D01*
X183966000Y-141140000D02*
X183966000Y-135800000D01*
X180524000Y-141140000D02*
X180524000Y-135800000D01*
X180875000Y-148560000D02*
X180875000Y-143620000D01*
X183615000Y-148560000D02*
X183615000Y-143620000D01*
X180875000Y-148560000D02*
X181190000Y-148560000D01*
X183300000Y-148560000D02*
X183615000Y-148560000D01*
X180875000Y-143620000D02*
X181190000Y-143620000D01*
X183300000Y-143620000D02*
X183615000Y-143620000D01*
X152510000Y-101561000D02*
X152510000Y-101246000D01*
X152510000Y-103986000D02*
X152510000Y-103671000D01*
X157450000Y-101561000D02*
X157450000Y-101246000D01*
X157450000Y-103986000D02*
X157450000Y-103671000D01*
X157450000Y-101246000D02*
X152510000Y-101246000D01*
X157450000Y-103986000D02*
X152510000Y-103986000D01*
X174283000Y-143620000D02*
X174598000Y-143620000D01*
X171858000Y-143620000D02*
X172173000Y-143620000D01*
X174283000Y-148560000D02*
X174598000Y-148560000D01*
X171858000Y-148560000D02*
X172173000Y-148560000D01*
X174598000Y-148560000D02*
X174598000Y-143620000D01*
X171858000Y-148560000D02*
X171858000Y-143620000D01*
X128240000Y-114400000D02*
X123300000Y-114400000D01*
X128240000Y-111660000D02*
X123300000Y-111660000D01*
X128240000Y-114400000D02*
X128240000Y-114085000D01*
X128240000Y-111975000D02*
X128240000Y-111660000D01*
X123300000Y-114400000D02*
X123300000Y-114085000D01*
X123300000Y-111975000D02*
X123300000Y-111660000D01*
X143510462Y-103320000D02*
G75*
G02*
X141965170Y-97770000I-462J2990000D01*
G01*
X143509538Y-103320000D02*
G75*
G03*
X145054830Y-97770000I462J2990000D01*
G01*
X146010000Y-100330000D02*
G75*
G03*
X146010000Y-100330000I-2500000J0D01*
G01*
X145055000Y-97770000D02*
X141965000Y-97770000D01*
X138070000Y-97770000D02*
X134980000Y-97770000D01*
X139025000Y-100330000D02*
G75*
G03*
X139025000Y-100330000I-2500000J0D01*
G01*
X136524538Y-103320000D02*
G75*
G03*
X138069830Y-97770000I462J2990000D01*
G01*
X136525462Y-103320000D02*
G75*
G02*
X134980170Y-97770000I-462J2990000D01*
G01*
D14*
X191272000Y-142395000D02*
X191272000Y-141895000D01*
X191272000Y-142395000D02*
X191772000Y-142395000D01*
X191272000Y-133195000D02*
X191272000Y-133695000D01*
X191272000Y-133195000D02*
X191772000Y-133195000D01*
X196872000Y-136595000D02*
X196872000Y-138995000D01*
X205872000Y-133195000D02*
X205372000Y-133195000D01*
X205872000Y-133195000D02*
X205872000Y-133695000D01*
X205872000Y-142395000D02*
X205872000Y-141895000D01*
X205872000Y-142395000D02*
X205372000Y-142395000D01*
X198572000Y-133195000D02*
X199572000Y-133195000D01*
X198572000Y-142395000D02*
X199572000Y-142395000D01*
D13*
X182940000Y-97095000D02*
X182940000Y-98425000D01*
X181610000Y-97095000D02*
X182940000Y-97095000D01*
X180340000Y-97095000D02*
X180340000Y-99755000D01*
X180340000Y-99755000D02*
X170120000Y-99755000D01*
X180340000Y-97095000D02*
X170120000Y-97095000D01*
X170120000Y-97095000D02*
X170120000Y-99755000D01*
X123952000Y-138430000D02*
X123952000Y-135890000D01*
X123952000Y-138430000D02*
X126492000Y-138430000D01*
X179578000Y-138430000D02*
X177038000Y-138430000D01*
X179578000Y-135890000D02*
X179578000Y-138430000D01*
X179578000Y-138430000D02*
X179578000Y-135890000D01*
X179578000Y-115570000D02*
X179578000Y-118110000D01*
X177038000Y-115570000D02*
X179578000Y-115570000D01*
X179578000Y-115570000D02*
X177038000Y-115570000D01*
X123952000Y-115570000D02*
X123952000Y-118110000D01*
X126492000Y-115570000D02*
X123952000Y-115570000D01*
D15*
X126936500Y-127000000D02*
G75*
G03*
X126936500Y-127000000I-825500J0D01*
G01*
X178117500Y-127000000D02*
G75*
G03*
X178117500Y-127000000I-825500J0D01*
G01*
D13*
X181080000Y-121230000D02*
X184680000Y-121230000D01*
X181041522Y-121218478D02*
G75*
G02*
X182880000Y-116780000I1838478J1838478D01*
G01*
X184718478Y-121218478D02*
G75*
G03*
X182880000Y-116780000I-1838478J1838478D01*
G01*
X181205000Y-106680000D02*
X180435000Y-106680000D01*
X173125000Y-106680000D02*
X173895000Y-106680000D01*
X180435000Y-105310000D02*
X173895000Y-105310000D01*
X180435000Y-108050000D02*
X180435000Y-105310000D01*
X173895000Y-108050000D02*
X180435000Y-108050000D01*
X173895000Y-105310000D02*
X173895000Y-108050000D01*
X173125000Y-109855000D02*
X173895000Y-109855000D01*
X181205000Y-109855000D02*
X180435000Y-109855000D01*
X173895000Y-111225000D02*
X180435000Y-111225000D01*
X173895000Y-108485000D02*
X173895000Y-111225000D01*
X180435000Y-108485000D02*
X173895000Y-108485000D01*
X180435000Y-111225000D02*
X180435000Y-108485000D01*
X185420000Y-124230000D02*
X185420000Y-125000000D01*
X185420000Y-132310000D02*
X185420000Y-131540000D01*
X184050000Y-125000000D02*
X184050000Y-131540000D01*
X186790000Y-125000000D02*
X184050000Y-125000000D01*
X186790000Y-131540000D02*
X186790000Y-125000000D01*
X184050000Y-131540000D02*
X186790000Y-131540000D01*
X180435000Y-114400000D02*
X180435000Y-111660000D01*
X180435000Y-111660000D02*
X173895000Y-111660000D01*
X173895000Y-111660000D02*
X173895000Y-114400000D01*
X173895000Y-114400000D02*
X180435000Y-114400000D01*
X181205000Y-113030000D02*
X180435000Y-113030000D01*
X173125000Y-113030000D02*
X173895000Y-113030000D01*
X185420000Y-112625000D02*
X185420000Y-111855000D01*
X185420000Y-104545000D02*
X185420000Y-105315000D01*
X186790000Y-111855000D02*
X186790000Y-105315000D01*
X184050000Y-111855000D02*
X186790000Y-111855000D01*
X184050000Y-105315000D02*
X184050000Y-111855000D01*
X186790000Y-105315000D02*
X184050000Y-105315000D01*
X182980000Y-125000000D02*
X180240000Y-125000000D01*
X180240000Y-125000000D02*
X180240000Y-131540000D01*
X180240000Y-131540000D02*
X182980000Y-131540000D01*
X182980000Y-131540000D02*
X182980000Y-125000000D01*
X181610000Y-124230000D02*
X181610000Y-125000000D01*
X181610000Y-132310000D02*
X181610000Y-131540000D01*
X127635000Y-99465000D02*
X127635000Y-100235000D01*
X127635000Y-107545000D02*
X127635000Y-106775000D01*
X126265000Y-100235000D02*
X126265000Y-106775000D01*
X129005000Y-100235000D02*
X126265000Y-100235000D01*
X129005000Y-106775000D02*
X129005000Y-100235000D01*
X126265000Y-106775000D02*
X129005000Y-106775000D01*
X122455000Y-106775000D02*
X125195000Y-106775000D01*
X125195000Y-106775000D02*
X125195000Y-100235000D01*
X125195000Y-100235000D02*
X122455000Y-100235000D01*
X122455000Y-100235000D02*
X122455000Y-106775000D01*
X123825000Y-107545000D02*
X123825000Y-106775000D01*
X123825000Y-99465000D02*
X123825000Y-100235000D01*
D14*
X180200000Y-149880000D02*
X179800000Y-149880000D01*
X180200000Y-149480000D02*
X180200000Y-149880000D01*
X180200000Y-139680000D02*
X180200000Y-140080000D01*
X180200000Y-139680000D02*
X179800000Y-139680000D01*
X175400000Y-139680000D02*
X175400000Y-140080000D01*
X175400000Y-139680000D02*
X179800000Y-139680000D01*
X175400000Y-149880000D02*
X175400000Y-149480000D01*
X175400000Y-149880000D02*
X175800000Y-149880000D01*
X179090000Y-139680000D02*
X179090000Y-149780000D01*
D13*
X166430000Y-111870000D02*
X166430000Y-110220000D01*
X130750000Y-111870000D02*
X166430000Y-111870000D01*
X130750000Y-106570000D02*
X130750000Y-111870000D01*
X166430000Y-106570000D02*
X130750000Y-106570000D01*
X166430000Y-108220000D02*
X166430000Y-106570000D01*
X166430000Y-110220000D02*
G75*
G02*
X166430000Y-108220000I0J1000000D01*
G01*
D14*
X123540000Y-141270000D02*
X123340000Y-141270000D01*
X123340000Y-141270000D02*
X123340000Y-141570000D01*
X123340000Y-147870000D02*
X123340000Y-148170000D01*
X123340000Y-148170000D02*
X123540000Y-148170000D01*
X143440000Y-140890000D02*
X143440000Y-140640000D01*
X143440000Y-141270000D02*
X143440000Y-140900000D01*
X144440000Y-142570000D02*
X144440000Y-142270000D01*
X144440000Y-142270000D02*
X143440000Y-141270000D01*
X143850000Y-148250000D02*
X144250000Y-148250000D01*
X144250000Y-148250000D02*
X144250000Y-147850000D01*
X170920000Y-148250000D02*
X170920000Y-147850000D01*
X170520000Y-148250000D02*
X170920000Y-148250000D01*
X171110000Y-142270000D02*
X170110000Y-141270000D01*
X171110000Y-142570000D02*
X171110000Y-142270000D01*
X170110000Y-141270000D02*
X170110000Y-140900000D01*
X170110000Y-140890000D02*
X170110000Y-140640000D01*
X150010000Y-148170000D02*
X150210000Y-148170000D01*
X150010000Y-147870000D02*
X150010000Y-148170000D01*
X150010000Y-141270000D02*
X150010000Y-141570000D01*
X150210000Y-141270000D02*
X150010000Y-141270000D01*
D13*
X148375000Y-143620000D02*
X148690000Y-143620000D01*
X145950000Y-143620000D02*
X146265000Y-143620000D01*
X148375000Y-148560000D02*
X148690000Y-148560000D01*
X145950000Y-148560000D02*
X146265000Y-148560000D01*
X148690000Y-148560000D02*
X148690000Y-143620000D01*
X145950000Y-148560000D02*
X145950000Y-143620000D01*
X186035000Y-145775000D02*
X186035000Y-148865000D01*
X191095000Y-147320000D02*
G75*
G03*
X191095000Y-147320000I-2500000J0D01*
G01*
X191585000Y-147320462D02*
G75*
G03*
X186035000Y-145775170I-2990000J462D01*
G01*
X191585000Y-147319538D02*
G75*
G02*
X186035000Y-148864830I-2990000J-462D01*
G01*
X188595000Y-141835000D02*
X188595000Y-141065000D01*
X188595000Y-133755000D02*
X188595000Y-134525000D01*
X189965000Y-141065000D02*
X189965000Y-134525000D01*
X187225000Y-141065000D02*
X189965000Y-141065000D01*
X187225000Y-134525000D02*
X187225000Y-141065000D01*
X189965000Y-134525000D02*
X187225000Y-134525000D01*
D11*
X176045952Y-103957380D02*
X175712619Y-103481190D01*
X175474523Y-103957380D02*
X175474523Y-102957380D01*
X175855476Y-102957380D01*
X175950714Y-103005000D01*
X175998333Y-103052619D01*
X176045952Y-103147857D01*
X176045952Y-103290714D01*
X175998333Y-103385952D01*
X175950714Y-103433571D01*
X175855476Y-103481190D01*
X175474523Y-103481190D01*
X176903095Y-103290714D02*
X176903095Y-103957380D01*
X176665000Y-102909761D02*
X176426904Y-103624047D01*
X177045952Y-103624047D01*
X177617380Y-102957380D02*
X177712619Y-102957380D01*
X177807857Y-103005000D01*
X177855476Y-103052619D01*
X177903095Y-103147857D01*
X177950714Y-103338333D01*
X177950714Y-103576428D01*
X177903095Y-103766904D01*
X177855476Y-103862142D01*
X177807857Y-103909761D01*
X177712619Y-103957380D01*
X177617380Y-103957380D01*
X177522142Y-103909761D01*
X177474523Y-103862142D01*
X177426904Y-103766904D01*
X177379285Y-103576428D01*
X177379285Y-103338333D01*
X177426904Y-103147857D01*
X177474523Y-103052619D01*
X177522142Y-103005000D01*
X177617380Y-102957380D01*
X178903095Y-103957380D02*
X178331666Y-103957380D01*
X178617380Y-103957380D02*
X178617380Y-102957380D01*
X178522142Y-103100238D01*
X178426904Y-103195476D01*
X178331666Y-103243095D01*
X196921380Y-110275476D02*
X195921380Y-110275476D01*
X195921380Y-110037380D01*
X195969000Y-109894523D01*
X196064238Y-109799285D01*
X196159476Y-109751666D01*
X196349952Y-109704047D01*
X196492809Y-109704047D01*
X196683285Y-109751666D01*
X196778523Y-109799285D01*
X196873761Y-109894523D01*
X196921380Y-110037380D01*
X196921380Y-110275476D01*
X196016619Y-109323095D02*
X195969000Y-109275476D01*
X195921380Y-109180238D01*
X195921380Y-108942142D01*
X195969000Y-108846904D01*
X196016619Y-108799285D01*
X196111857Y-108751666D01*
X196207095Y-108751666D01*
X196349952Y-108799285D01*
X196921380Y-109370714D01*
X196921380Y-108751666D01*
X195921380Y-108132619D02*
X195921380Y-108037380D01*
X195969000Y-107942142D01*
X196016619Y-107894523D01*
X196111857Y-107846904D01*
X196302333Y-107799285D01*
X196540428Y-107799285D01*
X196730904Y-107846904D01*
X196826142Y-107894523D01*
X196873761Y-107942142D01*
X196921380Y-108037380D01*
X196921380Y-108132619D01*
X196873761Y-108227857D01*
X196826142Y-108275476D01*
X196730904Y-108323095D01*
X196540428Y-108370714D01*
X196302333Y-108370714D01*
X196111857Y-108323095D01*
X196016619Y-108275476D01*
X195969000Y-108227857D01*
X195921380Y-108132619D01*
X196921380Y-106846904D02*
X196921380Y-107418333D01*
X196921380Y-107132619D02*
X195921380Y-107132619D01*
X196064238Y-107227857D01*
X196159476Y-107323095D01*
X196207095Y-107418333D01*
X188817380Y-114466619D02*
X188722142Y-114419000D01*
X188626904Y-114323761D01*
X188484047Y-114180904D01*
X188388809Y-114133285D01*
X188293571Y-114133285D01*
X188341190Y-114371380D02*
X188245952Y-114323761D01*
X188150714Y-114228523D01*
X188103095Y-114038047D01*
X188103095Y-113704714D01*
X188150714Y-113514238D01*
X188245952Y-113419000D01*
X188341190Y-113371380D01*
X188531666Y-113371380D01*
X188626904Y-113419000D01*
X188722142Y-113514238D01*
X188769761Y-113704714D01*
X188769761Y-114038047D01*
X188722142Y-114228523D01*
X188626904Y-114323761D01*
X188531666Y-114371380D01*
X188341190Y-114371380D01*
X189150714Y-113466619D02*
X189198333Y-113419000D01*
X189293571Y-113371380D01*
X189531666Y-113371380D01*
X189626904Y-113419000D01*
X189674523Y-113466619D01*
X189722142Y-113561857D01*
X189722142Y-113657095D01*
X189674523Y-113799952D01*
X189103095Y-114371380D01*
X189722142Y-114371380D01*
X190341190Y-113371380D02*
X190436428Y-113371380D01*
X190531666Y-113419000D01*
X190579285Y-113466619D01*
X190626904Y-113561857D01*
X190674523Y-113752333D01*
X190674523Y-113990428D01*
X190626904Y-114180904D01*
X190579285Y-114276142D01*
X190531666Y-114323761D01*
X190436428Y-114371380D01*
X190341190Y-114371380D01*
X190245952Y-114323761D01*
X190198333Y-114276142D01*
X190150714Y-114180904D01*
X190103095Y-113990428D01*
X190103095Y-113752333D01*
X190150714Y-113561857D01*
X190198333Y-113466619D01*
X190245952Y-113419000D01*
X190341190Y-113371380D01*
X191626904Y-114371380D02*
X191055476Y-114371380D01*
X191341190Y-114371380D02*
X191341190Y-113371380D01*
X191245952Y-113514238D01*
X191150714Y-113609476D01*
X191055476Y-113657095D01*
X196937380Y-124475714D02*
X197651666Y-124475714D01*
X197794523Y-124523333D01*
X197889761Y-124618571D01*
X197937380Y-124761428D01*
X197937380Y-124856666D01*
X197032619Y-124047142D02*
X196985000Y-123999523D01*
X196937380Y-123904285D01*
X196937380Y-123666190D01*
X196985000Y-123570952D01*
X197032619Y-123523333D01*
X197127857Y-123475714D01*
X197223095Y-123475714D01*
X197365952Y-123523333D01*
X197937380Y-124094761D01*
X197937380Y-123475714D01*
X196937380Y-122856666D02*
X196937380Y-122761428D01*
X196985000Y-122666190D01*
X197032619Y-122618571D01*
X197127857Y-122570952D01*
X197318333Y-122523333D01*
X197556428Y-122523333D01*
X197746904Y-122570952D01*
X197842142Y-122618571D01*
X197889761Y-122666190D01*
X197937380Y-122761428D01*
X197937380Y-122856666D01*
X197889761Y-122951904D01*
X197842142Y-122999523D01*
X197746904Y-123047142D01*
X197556428Y-123094761D01*
X197318333Y-123094761D01*
X197127857Y-123047142D01*
X197032619Y-122999523D01*
X196985000Y-122951904D01*
X196937380Y-122856666D01*
X197937380Y-121570952D02*
X197937380Y-122142380D01*
X197937380Y-121856666D02*
X196937380Y-121856666D01*
X197080238Y-121951904D01*
X197175476Y-122047142D01*
X197223095Y-122142380D01*
X188745952Y-100306142D02*
X188698333Y-100353761D01*
X188555476Y-100401380D01*
X188460238Y-100401380D01*
X188317380Y-100353761D01*
X188222142Y-100258523D01*
X188174523Y-100163285D01*
X188126904Y-99972809D01*
X188126904Y-99829952D01*
X188174523Y-99639476D01*
X188222142Y-99544238D01*
X188317380Y-99449000D01*
X188460238Y-99401380D01*
X188555476Y-99401380D01*
X188698333Y-99449000D01*
X188745952Y-99496619D01*
X189126904Y-99496619D02*
X189174523Y-99449000D01*
X189269761Y-99401380D01*
X189507857Y-99401380D01*
X189603095Y-99449000D01*
X189650714Y-99496619D01*
X189698333Y-99591857D01*
X189698333Y-99687095D01*
X189650714Y-99829952D01*
X189079285Y-100401380D01*
X189698333Y-100401380D01*
X190317380Y-99401380D02*
X190412619Y-99401380D01*
X190507857Y-99449000D01*
X190555476Y-99496619D01*
X190603095Y-99591857D01*
X190650714Y-99782333D01*
X190650714Y-100020428D01*
X190603095Y-100210904D01*
X190555476Y-100306142D01*
X190507857Y-100353761D01*
X190412619Y-100401380D01*
X190317380Y-100401380D01*
X190222142Y-100353761D01*
X190174523Y-100306142D01*
X190126904Y-100210904D01*
X190079285Y-100020428D01*
X190079285Y-99782333D01*
X190126904Y-99591857D01*
X190174523Y-99496619D01*
X190222142Y-99449000D01*
X190317380Y-99401380D01*
X191603095Y-100401380D02*
X191031666Y-100401380D01*
X191317380Y-100401380D02*
X191317380Y-99401380D01*
X191222142Y-99544238D01*
X191126904Y-99639476D01*
X191031666Y-99687095D01*
X185142142Y-139676047D02*
X185189761Y-139723666D01*
X185237380Y-139866523D01*
X185237380Y-139961761D01*
X185189761Y-140104619D01*
X185094523Y-140199857D01*
X184999285Y-140247476D01*
X184808809Y-140295095D01*
X184665952Y-140295095D01*
X184475476Y-140247476D01*
X184380238Y-140199857D01*
X184285000Y-140104619D01*
X184237380Y-139961761D01*
X184237380Y-139866523D01*
X184285000Y-139723666D01*
X184332619Y-139676047D01*
X184237380Y-139342714D02*
X184237380Y-138723666D01*
X184618333Y-139057000D01*
X184618333Y-138914142D01*
X184665952Y-138818904D01*
X184713571Y-138771285D01*
X184808809Y-138723666D01*
X185046904Y-138723666D01*
X185142142Y-138771285D01*
X185189761Y-138818904D01*
X185237380Y-138914142D01*
X185237380Y-139199857D01*
X185189761Y-139295095D01*
X185142142Y-139342714D01*
X184237380Y-138104619D02*
X184237380Y-138009380D01*
X184285000Y-137914142D01*
X184332619Y-137866523D01*
X184427857Y-137818904D01*
X184618333Y-137771285D01*
X184856428Y-137771285D01*
X185046904Y-137818904D01*
X185142142Y-137866523D01*
X185189761Y-137914142D01*
X185237380Y-138009380D01*
X185237380Y-138104619D01*
X185189761Y-138199857D01*
X185142142Y-138247476D01*
X185046904Y-138295095D01*
X184856428Y-138342714D01*
X184618333Y-138342714D01*
X184427857Y-138295095D01*
X184332619Y-138247476D01*
X184285000Y-138199857D01*
X184237380Y-138104619D01*
X185237380Y-136818904D02*
X185237380Y-137390333D01*
X185237380Y-137104619D02*
X184237380Y-137104619D01*
X184380238Y-137199857D01*
X184475476Y-137295095D01*
X184523095Y-137390333D01*
X184761142Y-147169047D02*
X184808761Y-147216666D01*
X184856380Y-147359523D01*
X184856380Y-147454761D01*
X184808761Y-147597619D01*
X184713523Y-147692857D01*
X184618285Y-147740476D01*
X184427809Y-147788095D01*
X184284952Y-147788095D01*
X184094476Y-147740476D01*
X183999238Y-147692857D01*
X183904000Y-147597619D01*
X183856380Y-147454761D01*
X183856380Y-147359523D01*
X183904000Y-147216666D01*
X183951619Y-147169047D01*
X183856380Y-146835714D02*
X183856380Y-146216666D01*
X184237333Y-146550000D01*
X184237333Y-146407142D01*
X184284952Y-146311904D01*
X184332571Y-146264285D01*
X184427809Y-146216666D01*
X184665904Y-146216666D01*
X184761142Y-146264285D01*
X184808761Y-146311904D01*
X184856380Y-146407142D01*
X184856380Y-146692857D01*
X184808761Y-146788095D01*
X184761142Y-146835714D01*
X183856380Y-145597619D02*
X183856380Y-145502380D01*
X183904000Y-145407142D01*
X183951619Y-145359523D01*
X184046857Y-145311904D01*
X184237333Y-145264285D01*
X184475428Y-145264285D01*
X184665904Y-145311904D01*
X184761142Y-145359523D01*
X184808761Y-145407142D01*
X184856380Y-145502380D01*
X184856380Y-145597619D01*
X184808761Y-145692857D01*
X184761142Y-145740476D01*
X184665904Y-145788095D01*
X184475428Y-145835714D01*
X184237333Y-145835714D01*
X184046857Y-145788095D01*
X183951619Y-145740476D01*
X183904000Y-145692857D01*
X183856380Y-145597619D01*
X183951619Y-144883333D02*
X183904000Y-144835714D01*
X183856380Y-144740476D01*
X183856380Y-144502380D01*
X183904000Y-144407142D01*
X183951619Y-144359523D01*
X184046857Y-144311904D01*
X184142095Y-144311904D01*
X184284952Y-144359523D01*
X184856380Y-144930952D01*
X184856380Y-144311904D01*
X154201952Y-100814142D02*
X154154333Y-100861761D01*
X154011476Y-100909380D01*
X153916238Y-100909380D01*
X153773380Y-100861761D01*
X153678142Y-100766523D01*
X153630523Y-100671285D01*
X153582904Y-100480809D01*
X153582904Y-100337952D01*
X153630523Y-100147476D01*
X153678142Y-100052238D01*
X153773380Y-99957000D01*
X153916238Y-99909380D01*
X154011476Y-99909380D01*
X154154333Y-99957000D01*
X154201952Y-100004619D01*
X155059095Y-100242714D02*
X155059095Y-100909380D01*
X154821000Y-99861761D02*
X154582904Y-100576047D01*
X155201952Y-100576047D01*
X155773380Y-99909380D02*
X155868619Y-99909380D01*
X155963857Y-99957000D01*
X156011476Y-100004619D01*
X156059095Y-100099857D01*
X156106714Y-100290333D01*
X156106714Y-100528428D01*
X156059095Y-100718904D01*
X156011476Y-100814142D01*
X155963857Y-100861761D01*
X155868619Y-100909380D01*
X155773380Y-100909380D01*
X155678142Y-100861761D01*
X155630523Y-100814142D01*
X155582904Y-100718904D01*
X155535285Y-100528428D01*
X155535285Y-100290333D01*
X155582904Y-100099857D01*
X155630523Y-100004619D01*
X155678142Y-99957000D01*
X155773380Y-99909380D01*
X157059095Y-100909380D02*
X156487666Y-100909380D01*
X156773380Y-100909380D02*
X156773380Y-99909380D01*
X156678142Y-100052238D01*
X156582904Y-100147476D01*
X156487666Y-100195095D01*
X172108952Y-142343142D02*
X172061333Y-142390761D01*
X171918476Y-142438380D01*
X171823238Y-142438380D01*
X171680380Y-142390761D01*
X171585142Y-142295523D01*
X171537523Y-142200285D01*
X171489904Y-142009809D01*
X171489904Y-141866952D01*
X171537523Y-141676476D01*
X171585142Y-141581238D01*
X171680380Y-141486000D01*
X171823238Y-141438380D01*
X171918476Y-141438380D01*
X172061333Y-141486000D01*
X172108952Y-141533619D01*
X173013714Y-141438380D02*
X172537523Y-141438380D01*
X172489904Y-141914571D01*
X172537523Y-141866952D01*
X172632761Y-141819333D01*
X172870857Y-141819333D01*
X172966095Y-141866952D01*
X173013714Y-141914571D01*
X173061333Y-142009809D01*
X173061333Y-142247904D01*
X173013714Y-142343142D01*
X172966095Y-142390761D01*
X172870857Y-142438380D01*
X172632761Y-142438380D01*
X172537523Y-142390761D01*
X172489904Y-142343142D01*
X173680380Y-141438380D02*
X173775619Y-141438380D01*
X173870857Y-141486000D01*
X173918476Y-141533619D01*
X173966095Y-141628857D01*
X174013714Y-141819333D01*
X174013714Y-142057428D01*
X173966095Y-142247904D01*
X173918476Y-142343142D01*
X173870857Y-142390761D01*
X173775619Y-142438380D01*
X173680380Y-142438380D01*
X173585142Y-142390761D01*
X173537523Y-142343142D01*
X173489904Y-142247904D01*
X173442285Y-142057428D01*
X173442285Y-141819333D01*
X173489904Y-141628857D01*
X173537523Y-141533619D01*
X173585142Y-141486000D01*
X173680380Y-141438380D01*
X174966095Y-142438380D02*
X174394666Y-142438380D01*
X174680380Y-142438380D02*
X174680380Y-141438380D01*
X174585142Y-141581238D01*
X174489904Y-141676476D01*
X174394666Y-141724095D01*
X124610952Y-111228142D02*
X124563333Y-111275761D01*
X124420476Y-111323380D01*
X124325238Y-111323380D01*
X124182380Y-111275761D01*
X124087142Y-111180523D01*
X124039523Y-111085285D01*
X123991904Y-110894809D01*
X123991904Y-110751952D01*
X124039523Y-110561476D01*
X124087142Y-110466238D01*
X124182380Y-110371000D01*
X124325238Y-110323380D01*
X124420476Y-110323380D01*
X124563333Y-110371000D01*
X124610952Y-110418619D01*
X125468095Y-110323380D02*
X125277619Y-110323380D01*
X125182380Y-110371000D01*
X125134761Y-110418619D01*
X125039523Y-110561476D01*
X124991904Y-110751952D01*
X124991904Y-111132904D01*
X125039523Y-111228142D01*
X125087142Y-111275761D01*
X125182380Y-111323380D01*
X125372857Y-111323380D01*
X125468095Y-111275761D01*
X125515714Y-111228142D01*
X125563333Y-111132904D01*
X125563333Y-110894809D01*
X125515714Y-110799571D01*
X125468095Y-110751952D01*
X125372857Y-110704333D01*
X125182380Y-110704333D01*
X125087142Y-110751952D01*
X125039523Y-110799571D01*
X124991904Y-110894809D01*
X126182380Y-110323380D02*
X126277619Y-110323380D01*
X126372857Y-110371000D01*
X126420476Y-110418619D01*
X126468095Y-110513857D01*
X126515714Y-110704333D01*
X126515714Y-110942428D01*
X126468095Y-111132904D01*
X126420476Y-111228142D01*
X126372857Y-111275761D01*
X126277619Y-111323380D01*
X126182380Y-111323380D01*
X126087142Y-111275761D01*
X126039523Y-111228142D01*
X125991904Y-111132904D01*
X125944285Y-110942428D01*
X125944285Y-110704333D01*
X125991904Y-110513857D01*
X126039523Y-110418619D01*
X126087142Y-110371000D01*
X126182380Y-110323380D01*
X127468095Y-111323380D02*
X126896666Y-111323380D01*
X127182380Y-111323380D02*
X127182380Y-110323380D01*
X127087142Y-110466238D01*
X126991904Y-110561476D01*
X126896666Y-110609095D01*
X146137523Y-103068380D02*
X146137523Y-102068380D01*
X146375619Y-102068380D01*
X146518476Y-102116000D01*
X146613714Y-102211238D01*
X146661333Y-102306476D01*
X146708952Y-102496952D01*
X146708952Y-102639809D01*
X146661333Y-102830285D01*
X146613714Y-102925523D01*
X146518476Y-103020761D01*
X146375619Y-103068380D01*
X146137523Y-103068380D01*
X147566095Y-102401714D02*
X147566095Y-103068380D01*
X147328000Y-102020761D02*
X147089904Y-102735047D01*
X147708952Y-102735047D01*
X148280380Y-102068380D02*
X148375619Y-102068380D01*
X148470857Y-102116000D01*
X148518476Y-102163619D01*
X148566095Y-102258857D01*
X148613714Y-102449333D01*
X148613714Y-102687428D01*
X148566095Y-102877904D01*
X148518476Y-102973142D01*
X148470857Y-103020761D01*
X148375619Y-103068380D01*
X148280380Y-103068380D01*
X148185142Y-103020761D01*
X148137523Y-102973142D01*
X148089904Y-102877904D01*
X148042285Y-102687428D01*
X148042285Y-102449333D01*
X148089904Y-102258857D01*
X148137523Y-102163619D01*
X148185142Y-102116000D01*
X148280380Y-102068380D01*
X149566095Y-103068380D02*
X148994666Y-103068380D01*
X149280380Y-103068380D02*
X149280380Y-102068380D01*
X149185142Y-102211238D01*
X149089904Y-102306476D01*
X148994666Y-102354095D01*
X130389523Y-103068380D02*
X130389523Y-102068380D01*
X130627619Y-102068380D01*
X130770476Y-102116000D01*
X130865714Y-102211238D01*
X130913333Y-102306476D01*
X130960952Y-102496952D01*
X130960952Y-102639809D01*
X130913333Y-102830285D01*
X130865714Y-102925523D01*
X130770476Y-103020761D01*
X130627619Y-103068380D01*
X130389523Y-103068380D01*
X131818095Y-102401714D02*
X131818095Y-103068380D01*
X131580000Y-102020761D02*
X131341904Y-102735047D01*
X131960952Y-102735047D01*
X132532380Y-102068380D02*
X132627619Y-102068380D01*
X132722857Y-102116000D01*
X132770476Y-102163619D01*
X132818095Y-102258857D01*
X132865714Y-102449333D01*
X132865714Y-102687428D01*
X132818095Y-102877904D01*
X132770476Y-102973142D01*
X132722857Y-103020761D01*
X132627619Y-103068380D01*
X132532380Y-103068380D01*
X132437142Y-103020761D01*
X132389523Y-102973142D01*
X132341904Y-102877904D01*
X132294285Y-102687428D01*
X132294285Y-102449333D01*
X132341904Y-102258857D01*
X132389523Y-102163619D01*
X132437142Y-102116000D01*
X132532380Y-102068380D01*
X133246666Y-102163619D02*
X133294285Y-102116000D01*
X133389523Y-102068380D01*
X133627619Y-102068380D01*
X133722857Y-102116000D01*
X133770476Y-102163619D01*
X133818095Y-102258857D01*
X133818095Y-102354095D01*
X133770476Y-102496952D01*
X133199047Y-103068380D01*
X133818095Y-103068380D01*
X194524380Y-139080714D02*
X195238666Y-139080714D01*
X195381523Y-139128333D01*
X195476761Y-139223571D01*
X195524380Y-139366428D01*
X195524380Y-139461666D01*
X194524380Y-138699761D02*
X194524380Y-138080714D01*
X194905333Y-138414047D01*
X194905333Y-138271190D01*
X194952952Y-138175952D01*
X195000571Y-138128333D01*
X195095809Y-138080714D01*
X195333904Y-138080714D01*
X195429142Y-138128333D01*
X195476761Y-138175952D01*
X195524380Y-138271190D01*
X195524380Y-138556904D01*
X195476761Y-138652142D01*
X195429142Y-138699761D01*
X194524380Y-137461666D02*
X194524380Y-137366428D01*
X194572000Y-137271190D01*
X194619619Y-137223571D01*
X194714857Y-137175952D01*
X194905333Y-137128333D01*
X195143428Y-137128333D01*
X195333904Y-137175952D01*
X195429142Y-137223571D01*
X195476761Y-137271190D01*
X195524380Y-137366428D01*
X195524380Y-137461666D01*
X195476761Y-137556904D01*
X195429142Y-137604523D01*
X195333904Y-137652142D01*
X195143428Y-137699761D01*
X194905333Y-137699761D01*
X194714857Y-137652142D01*
X194619619Y-137604523D01*
X194572000Y-137556904D01*
X194524380Y-137461666D01*
X195524380Y-136175952D02*
X195524380Y-136747380D01*
X195524380Y-136461666D02*
X194524380Y-136461666D01*
X194667238Y-136556904D01*
X194762476Y-136652142D01*
X194810095Y-136747380D01*
X183602380Y-99710714D02*
X184316666Y-99710714D01*
X184459523Y-99758333D01*
X184554761Y-99853571D01*
X184602380Y-99996428D01*
X184602380Y-100091666D01*
X183935714Y-98805952D02*
X184602380Y-98805952D01*
X183554761Y-99044047D02*
X184269047Y-99282142D01*
X184269047Y-98663095D01*
X183602380Y-98091666D02*
X183602380Y-97996428D01*
X183650000Y-97901190D01*
X183697619Y-97853571D01*
X183792857Y-97805952D01*
X183983333Y-97758333D01*
X184221428Y-97758333D01*
X184411904Y-97805952D01*
X184507142Y-97853571D01*
X184554761Y-97901190D01*
X184602380Y-97996428D01*
X184602380Y-98091666D01*
X184554761Y-98186904D01*
X184507142Y-98234523D01*
X184411904Y-98282142D01*
X184221428Y-98329761D01*
X183983333Y-98329761D01*
X183792857Y-98282142D01*
X183697619Y-98234523D01*
X183650000Y-98186904D01*
X183602380Y-98091666D01*
X184602380Y-96805952D02*
X184602380Y-97377380D01*
X184602380Y-97091666D02*
X183602380Y-97091666D01*
X183745238Y-97186904D01*
X183840476Y-97282142D01*
X183888095Y-97377380D01*
X153654285Y-126452380D02*
X153654285Y-127166666D01*
X153606666Y-127309523D01*
X153511428Y-127404761D01*
X153368571Y-127452380D01*
X153273333Y-127452380D01*
X154559047Y-126452380D02*
X154368571Y-126452380D01*
X154273333Y-126500000D01*
X154225714Y-126547619D01*
X154130476Y-126690476D01*
X154082857Y-126880952D01*
X154082857Y-127261904D01*
X154130476Y-127357142D01*
X154178095Y-127404761D01*
X154273333Y-127452380D01*
X154463809Y-127452380D01*
X154559047Y-127404761D01*
X154606666Y-127357142D01*
X154654285Y-127261904D01*
X154654285Y-127023809D01*
X154606666Y-126928571D01*
X154559047Y-126880952D01*
X154463809Y-126833333D01*
X154273333Y-126833333D01*
X154178095Y-126880952D01*
X154130476Y-126928571D01*
X154082857Y-127023809D01*
X155273333Y-126452380D02*
X155368571Y-126452380D01*
X155463809Y-126500000D01*
X155511428Y-126547619D01*
X155559047Y-126642857D01*
X155606666Y-126833333D01*
X155606666Y-127071428D01*
X155559047Y-127261904D01*
X155511428Y-127357142D01*
X155463809Y-127404761D01*
X155368571Y-127452380D01*
X155273333Y-127452380D01*
X155178095Y-127404761D01*
X155130476Y-127357142D01*
X155082857Y-127261904D01*
X155035238Y-127071428D01*
X155035238Y-126833333D01*
X155082857Y-126642857D01*
X155130476Y-126547619D01*
X155178095Y-126500000D01*
X155273333Y-126452380D01*
X156559047Y-127452380D02*
X155987619Y-127452380D01*
X156273333Y-127452380D02*
X156273333Y-126452380D01*
X156178095Y-126595238D01*
X156082857Y-126690476D01*
X155987619Y-126738095D01*
X181832380Y-116625619D02*
X181737142Y-116578000D01*
X181641904Y-116482761D01*
X181499047Y-116339904D01*
X181403809Y-116292285D01*
X181308571Y-116292285D01*
X181356190Y-116530380D02*
X181260952Y-116482761D01*
X181165714Y-116387523D01*
X181118095Y-116197047D01*
X181118095Y-115863714D01*
X181165714Y-115673238D01*
X181260952Y-115578000D01*
X181356190Y-115530380D01*
X181546666Y-115530380D01*
X181641904Y-115578000D01*
X181737142Y-115673238D01*
X181784761Y-115863714D01*
X181784761Y-116197047D01*
X181737142Y-116387523D01*
X181641904Y-116482761D01*
X181546666Y-116530380D01*
X181356190Y-116530380D01*
X182165714Y-115625619D02*
X182213333Y-115578000D01*
X182308571Y-115530380D01*
X182546666Y-115530380D01*
X182641904Y-115578000D01*
X182689523Y-115625619D01*
X182737142Y-115720857D01*
X182737142Y-115816095D01*
X182689523Y-115958952D01*
X182118095Y-116530380D01*
X182737142Y-116530380D01*
X183356190Y-115530380D02*
X183451428Y-115530380D01*
X183546666Y-115578000D01*
X183594285Y-115625619D01*
X183641904Y-115720857D01*
X183689523Y-115911333D01*
X183689523Y-116149428D01*
X183641904Y-116339904D01*
X183594285Y-116435142D01*
X183546666Y-116482761D01*
X183451428Y-116530380D01*
X183356190Y-116530380D01*
X183260952Y-116482761D01*
X183213333Y-116435142D01*
X183165714Y-116339904D01*
X183118095Y-116149428D01*
X183118095Y-115911333D01*
X183165714Y-115720857D01*
X183213333Y-115625619D01*
X183260952Y-115578000D01*
X183356190Y-115530380D01*
X184070476Y-115625619D02*
X184118095Y-115578000D01*
X184213333Y-115530380D01*
X184451428Y-115530380D01*
X184546666Y-115578000D01*
X184594285Y-115625619D01*
X184641904Y-115720857D01*
X184641904Y-115816095D01*
X184594285Y-115958952D01*
X184022857Y-116530380D01*
X184641904Y-116530380D01*
X176045952Y-107132380D02*
X175712619Y-106656190D01*
X175474523Y-107132380D02*
X175474523Y-106132380D01*
X175855476Y-106132380D01*
X175950714Y-106180000D01*
X175998333Y-106227619D01*
X176045952Y-106322857D01*
X176045952Y-106465714D01*
X175998333Y-106560952D01*
X175950714Y-106608571D01*
X175855476Y-106656190D01*
X175474523Y-106656190D01*
X176426904Y-106227619D02*
X176474523Y-106180000D01*
X176569761Y-106132380D01*
X176807857Y-106132380D01*
X176903095Y-106180000D01*
X176950714Y-106227619D01*
X176998333Y-106322857D01*
X176998333Y-106418095D01*
X176950714Y-106560952D01*
X176379285Y-107132380D01*
X176998333Y-107132380D01*
X177617380Y-106132380D02*
X177712619Y-106132380D01*
X177807857Y-106180000D01*
X177855476Y-106227619D01*
X177903095Y-106322857D01*
X177950714Y-106513333D01*
X177950714Y-106751428D01*
X177903095Y-106941904D01*
X177855476Y-107037142D01*
X177807857Y-107084761D01*
X177712619Y-107132380D01*
X177617380Y-107132380D01*
X177522142Y-107084761D01*
X177474523Y-107037142D01*
X177426904Y-106941904D01*
X177379285Y-106751428D01*
X177379285Y-106513333D01*
X177426904Y-106322857D01*
X177474523Y-106227619D01*
X177522142Y-106180000D01*
X177617380Y-106132380D01*
X178903095Y-107132380D02*
X178331666Y-107132380D01*
X178617380Y-107132380D02*
X178617380Y-106132380D01*
X178522142Y-106275238D01*
X178426904Y-106370476D01*
X178331666Y-106418095D01*
X176045952Y-110307380D02*
X175712619Y-109831190D01*
X175474523Y-110307380D02*
X175474523Y-109307380D01*
X175855476Y-109307380D01*
X175950714Y-109355000D01*
X175998333Y-109402619D01*
X176045952Y-109497857D01*
X176045952Y-109640714D01*
X175998333Y-109735952D01*
X175950714Y-109783571D01*
X175855476Y-109831190D01*
X175474523Y-109831190D01*
X176426904Y-109402619D02*
X176474523Y-109355000D01*
X176569761Y-109307380D01*
X176807857Y-109307380D01*
X176903095Y-109355000D01*
X176950714Y-109402619D01*
X176998333Y-109497857D01*
X176998333Y-109593095D01*
X176950714Y-109735952D01*
X176379285Y-110307380D01*
X176998333Y-110307380D01*
X177617380Y-109307380D02*
X177712619Y-109307380D01*
X177807857Y-109355000D01*
X177855476Y-109402619D01*
X177903095Y-109497857D01*
X177950714Y-109688333D01*
X177950714Y-109926428D01*
X177903095Y-110116904D01*
X177855476Y-110212142D01*
X177807857Y-110259761D01*
X177712619Y-110307380D01*
X177617380Y-110307380D01*
X177522142Y-110259761D01*
X177474523Y-110212142D01*
X177426904Y-110116904D01*
X177379285Y-109926428D01*
X177379285Y-109688333D01*
X177426904Y-109497857D01*
X177474523Y-109402619D01*
X177522142Y-109355000D01*
X177617380Y-109307380D01*
X178331666Y-109402619D02*
X178379285Y-109355000D01*
X178474523Y-109307380D01*
X178712619Y-109307380D01*
X178807857Y-109355000D01*
X178855476Y-109402619D01*
X178903095Y-109497857D01*
X178903095Y-109593095D01*
X178855476Y-109735952D01*
X178284047Y-110307380D01*
X178903095Y-110307380D01*
X185872380Y-129389047D02*
X185396190Y-129722380D01*
X185872380Y-129960476D02*
X184872380Y-129960476D01*
X184872380Y-129579523D01*
X184920000Y-129484285D01*
X184967619Y-129436666D01*
X185062857Y-129389047D01*
X185205714Y-129389047D01*
X185300952Y-129436666D01*
X185348571Y-129484285D01*
X185396190Y-129579523D01*
X185396190Y-129960476D01*
X184967619Y-129008095D02*
X184920000Y-128960476D01*
X184872380Y-128865238D01*
X184872380Y-128627142D01*
X184920000Y-128531904D01*
X184967619Y-128484285D01*
X185062857Y-128436666D01*
X185158095Y-128436666D01*
X185300952Y-128484285D01*
X185872380Y-129055714D01*
X185872380Y-128436666D01*
X184872380Y-127817619D02*
X184872380Y-127722380D01*
X184920000Y-127627142D01*
X184967619Y-127579523D01*
X185062857Y-127531904D01*
X185253333Y-127484285D01*
X185491428Y-127484285D01*
X185681904Y-127531904D01*
X185777142Y-127579523D01*
X185824761Y-127627142D01*
X185872380Y-127722380D01*
X185872380Y-127817619D01*
X185824761Y-127912857D01*
X185777142Y-127960476D01*
X185681904Y-128008095D01*
X185491428Y-128055714D01*
X185253333Y-128055714D01*
X185062857Y-128008095D01*
X184967619Y-127960476D01*
X184920000Y-127912857D01*
X184872380Y-127817619D01*
X184872380Y-127150952D02*
X184872380Y-126531904D01*
X185253333Y-126865238D01*
X185253333Y-126722380D01*
X185300952Y-126627142D01*
X185348571Y-126579523D01*
X185443809Y-126531904D01*
X185681904Y-126531904D01*
X185777142Y-126579523D01*
X185824761Y-126627142D01*
X185872380Y-126722380D01*
X185872380Y-127008095D01*
X185824761Y-127103333D01*
X185777142Y-127150952D01*
X176045952Y-113482380D02*
X175712619Y-113006190D01*
X175474523Y-113482380D02*
X175474523Y-112482380D01*
X175855476Y-112482380D01*
X175950714Y-112530000D01*
X175998333Y-112577619D01*
X176045952Y-112672857D01*
X176045952Y-112815714D01*
X175998333Y-112910952D01*
X175950714Y-112958571D01*
X175855476Y-113006190D01*
X175474523Y-113006190D01*
X176426904Y-112577619D02*
X176474523Y-112530000D01*
X176569761Y-112482380D01*
X176807857Y-112482380D01*
X176903095Y-112530000D01*
X176950714Y-112577619D01*
X176998333Y-112672857D01*
X176998333Y-112768095D01*
X176950714Y-112910952D01*
X176379285Y-113482380D01*
X176998333Y-113482380D01*
X177617380Y-112482380D02*
X177712619Y-112482380D01*
X177807857Y-112530000D01*
X177855476Y-112577619D01*
X177903095Y-112672857D01*
X177950714Y-112863333D01*
X177950714Y-113101428D01*
X177903095Y-113291904D01*
X177855476Y-113387142D01*
X177807857Y-113434761D01*
X177712619Y-113482380D01*
X177617380Y-113482380D01*
X177522142Y-113434761D01*
X177474523Y-113387142D01*
X177426904Y-113291904D01*
X177379285Y-113101428D01*
X177379285Y-112863333D01*
X177426904Y-112672857D01*
X177474523Y-112577619D01*
X177522142Y-112530000D01*
X177617380Y-112482380D01*
X178807857Y-112815714D02*
X178807857Y-113482380D01*
X178569761Y-112434761D02*
X178331666Y-113149047D01*
X178950714Y-113149047D01*
X185872380Y-109704047D02*
X185396190Y-110037380D01*
X185872380Y-110275476D02*
X184872380Y-110275476D01*
X184872380Y-109894523D01*
X184920000Y-109799285D01*
X184967619Y-109751666D01*
X185062857Y-109704047D01*
X185205714Y-109704047D01*
X185300952Y-109751666D01*
X185348571Y-109799285D01*
X185396190Y-109894523D01*
X185396190Y-110275476D01*
X184967619Y-109323095D02*
X184920000Y-109275476D01*
X184872380Y-109180238D01*
X184872380Y-108942142D01*
X184920000Y-108846904D01*
X184967619Y-108799285D01*
X185062857Y-108751666D01*
X185158095Y-108751666D01*
X185300952Y-108799285D01*
X185872380Y-109370714D01*
X185872380Y-108751666D01*
X184872380Y-108132619D02*
X184872380Y-108037380D01*
X184920000Y-107942142D01*
X184967619Y-107894523D01*
X185062857Y-107846904D01*
X185253333Y-107799285D01*
X185491428Y-107799285D01*
X185681904Y-107846904D01*
X185777142Y-107894523D01*
X185824761Y-107942142D01*
X185872380Y-108037380D01*
X185872380Y-108132619D01*
X185824761Y-108227857D01*
X185777142Y-108275476D01*
X185681904Y-108323095D01*
X185491428Y-108370714D01*
X185253333Y-108370714D01*
X185062857Y-108323095D01*
X184967619Y-108275476D01*
X184920000Y-108227857D01*
X184872380Y-108132619D01*
X184872380Y-106894523D02*
X184872380Y-107370714D01*
X185348571Y-107418333D01*
X185300952Y-107370714D01*
X185253333Y-107275476D01*
X185253333Y-107037380D01*
X185300952Y-106942142D01*
X185348571Y-106894523D01*
X185443809Y-106846904D01*
X185681904Y-106846904D01*
X185777142Y-106894523D01*
X185824761Y-106942142D01*
X185872380Y-107037380D01*
X185872380Y-107275476D01*
X185824761Y-107370714D01*
X185777142Y-107418333D01*
X182062380Y-129389047D02*
X181586190Y-129722380D01*
X182062380Y-129960476D02*
X181062380Y-129960476D01*
X181062380Y-129579523D01*
X181110000Y-129484285D01*
X181157619Y-129436666D01*
X181252857Y-129389047D01*
X181395714Y-129389047D01*
X181490952Y-129436666D01*
X181538571Y-129484285D01*
X181586190Y-129579523D01*
X181586190Y-129960476D01*
X181157619Y-129008095D02*
X181110000Y-128960476D01*
X181062380Y-128865238D01*
X181062380Y-128627142D01*
X181110000Y-128531904D01*
X181157619Y-128484285D01*
X181252857Y-128436666D01*
X181348095Y-128436666D01*
X181490952Y-128484285D01*
X182062380Y-129055714D01*
X182062380Y-128436666D01*
X181062380Y-127817619D02*
X181062380Y-127722380D01*
X181110000Y-127627142D01*
X181157619Y-127579523D01*
X181252857Y-127531904D01*
X181443333Y-127484285D01*
X181681428Y-127484285D01*
X181871904Y-127531904D01*
X181967142Y-127579523D01*
X182014761Y-127627142D01*
X182062380Y-127722380D01*
X182062380Y-127817619D01*
X182014761Y-127912857D01*
X181967142Y-127960476D01*
X181871904Y-128008095D01*
X181681428Y-128055714D01*
X181443333Y-128055714D01*
X181252857Y-128008095D01*
X181157619Y-127960476D01*
X181110000Y-127912857D01*
X181062380Y-127817619D01*
X181062380Y-126627142D02*
X181062380Y-126817619D01*
X181110000Y-126912857D01*
X181157619Y-126960476D01*
X181300476Y-127055714D01*
X181490952Y-127103333D01*
X181871904Y-127103333D01*
X181967142Y-127055714D01*
X182014761Y-127008095D01*
X182062380Y-126912857D01*
X182062380Y-126722380D01*
X182014761Y-126627142D01*
X181967142Y-126579523D01*
X181871904Y-126531904D01*
X181633809Y-126531904D01*
X181538571Y-126579523D01*
X181490952Y-126627142D01*
X181443333Y-126722380D01*
X181443333Y-126912857D01*
X181490952Y-127008095D01*
X181538571Y-127055714D01*
X181633809Y-127103333D01*
X128087380Y-104624047D02*
X127611190Y-104957380D01*
X128087380Y-105195476D02*
X127087380Y-105195476D01*
X127087380Y-104814523D01*
X127135000Y-104719285D01*
X127182619Y-104671666D01*
X127277857Y-104624047D01*
X127420714Y-104624047D01*
X127515952Y-104671666D01*
X127563571Y-104719285D01*
X127611190Y-104814523D01*
X127611190Y-105195476D01*
X127420714Y-103766904D02*
X128087380Y-103766904D01*
X127039761Y-104005000D02*
X127754047Y-104243095D01*
X127754047Y-103624047D01*
X127087380Y-103052619D02*
X127087380Y-102957380D01*
X127135000Y-102862142D01*
X127182619Y-102814523D01*
X127277857Y-102766904D01*
X127468333Y-102719285D01*
X127706428Y-102719285D01*
X127896904Y-102766904D01*
X127992142Y-102814523D01*
X128039761Y-102862142D01*
X128087380Y-102957380D01*
X128087380Y-103052619D01*
X128039761Y-103147857D01*
X127992142Y-103195476D01*
X127896904Y-103243095D01*
X127706428Y-103290714D01*
X127468333Y-103290714D01*
X127277857Y-103243095D01*
X127182619Y-103195476D01*
X127135000Y-103147857D01*
X127087380Y-103052619D01*
X127182619Y-102338333D02*
X127135000Y-102290714D01*
X127087380Y-102195476D01*
X127087380Y-101957380D01*
X127135000Y-101862142D01*
X127182619Y-101814523D01*
X127277857Y-101766904D01*
X127373095Y-101766904D01*
X127515952Y-101814523D01*
X128087380Y-102385952D01*
X128087380Y-101766904D01*
X124277380Y-104624047D02*
X123801190Y-104957380D01*
X124277380Y-105195476D02*
X123277380Y-105195476D01*
X123277380Y-104814523D01*
X123325000Y-104719285D01*
X123372619Y-104671666D01*
X123467857Y-104624047D01*
X123610714Y-104624047D01*
X123705952Y-104671666D01*
X123753571Y-104719285D01*
X123801190Y-104814523D01*
X123801190Y-105195476D01*
X123610714Y-103766904D02*
X124277380Y-103766904D01*
X123229761Y-104005000D02*
X123944047Y-104243095D01*
X123944047Y-103624047D01*
X123277380Y-103052619D02*
X123277380Y-102957380D01*
X123325000Y-102862142D01*
X123372619Y-102814523D01*
X123467857Y-102766904D01*
X123658333Y-102719285D01*
X123896428Y-102719285D01*
X124086904Y-102766904D01*
X124182142Y-102814523D01*
X124229761Y-102862142D01*
X124277380Y-102957380D01*
X124277380Y-103052619D01*
X124229761Y-103147857D01*
X124182142Y-103195476D01*
X124086904Y-103243095D01*
X123896428Y-103290714D01*
X123658333Y-103290714D01*
X123467857Y-103243095D01*
X123372619Y-103195476D01*
X123325000Y-103147857D01*
X123277380Y-103052619D01*
X123277380Y-102385952D02*
X123277380Y-101766904D01*
X123658333Y-102100238D01*
X123658333Y-101957380D01*
X123705952Y-101862142D01*
X123753571Y-101814523D01*
X123848809Y-101766904D01*
X124086904Y-101766904D01*
X124182142Y-101814523D01*
X124229761Y-101862142D01*
X124277380Y-101957380D01*
X124277380Y-102243095D01*
X124229761Y-102338333D01*
X124182142Y-102385952D01*
X175347380Y-149034285D02*
X176156904Y-149034285D01*
X176252142Y-148986666D01*
X176299761Y-148939047D01*
X176347380Y-148843809D01*
X176347380Y-148653333D01*
X176299761Y-148558095D01*
X176252142Y-148510476D01*
X176156904Y-148462857D01*
X175347380Y-148462857D01*
X175347380Y-148081904D02*
X175347380Y-147462857D01*
X175728333Y-147796190D01*
X175728333Y-147653333D01*
X175775952Y-147558095D01*
X175823571Y-147510476D01*
X175918809Y-147462857D01*
X176156904Y-147462857D01*
X176252142Y-147510476D01*
X176299761Y-147558095D01*
X176347380Y-147653333D01*
X176347380Y-147939047D01*
X176299761Y-148034285D01*
X176252142Y-148081904D01*
X175347380Y-146843809D02*
X175347380Y-146748571D01*
X175395000Y-146653333D01*
X175442619Y-146605714D01*
X175537857Y-146558095D01*
X175728333Y-146510476D01*
X175966428Y-146510476D01*
X176156904Y-146558095D01*
X176252142Y-146605714D01*
X176299761Y-146653333D01*
X176347380Y-146748571D01*
X176347380Y-146843809D01*
X176299761Y-146939047D01*
X176252142Y-146986666D01*
X176156904Y-147034285D01*
X175966428Y-147081904D01*
X175728333Y-147081904D01*
X175537857Y-147034285D01*
X175442619Y-146986666D01*
X175395000Y-146939047D01*
X175347380Y-146843809D01*
X176347380Y-145558095D02*
X176347380Y-146129523D01*
X176347380Y-145843809D02*
X175347380Y-145843809D01*
X175490238Y-145939047D01*
X175585476Y-146034285D01*
X175633095Y-146129523D01*
X146875714Y-108672380D02*
X146875714Y-109481904D01*
X146923333Y-109577142D01*
X146970952Y-109624761D01*
X147066190Y-109672380D01*
X147256666Y-109672380D01*
X147351904Y-109624761D01*
X147399523Y-109577142D01*
X147447142Y-109481904D01*
X147447142Y-108672380D01*
X148351904Y-109005714D02*
X148351904Y-109672380D01*
X148113809Y-108624761D02*
X147875714Y-109339047D01*
X148494761Y-109339047D01*
X149066190Y-108672380D02*
X149161428Y-108672380D01*
X149256666Y-108720000D01*
X149304285Y-108767619D01*
X149351904Y-108862857D01*
X149399523Y-109053333D01*
X149399523Y-109291428D01*
X149351904Y-109481904D01*
X149304285Y-109577142D01*
X149256666Y-109624761D01*
X149161428Y-109672380D01*
X149066190Y-109672380D01*
X148970952Y-109624761D01*
X148923333Y-109577142D01*
X148875714Y-109481904D01*
X148828095Y-109291428D01*
X148828095Y-109053333D01*
X148875714Y-108862857D01*
X148923333Y-108767619D01*
X148970952Y-108720000D01*
X149066190Y-108672380D01*
X150351904Y-109672380D02*
X149780476Y-109672380D01*
X150066190Y-109672380D02*
X150066190Y-108672380D01*
X149970952Y-108815238D01*
X149875714Y-108910476D01*
X149780476Y-108958095D01*
X132905714Y-144232380D02*
X132905714Y-145041904D01*
X132953333Y-145137142D01*
X133000952Y-145184761D01*
X133096190Y-145232380D01*
X133286666Y-145232380D01*
X133381904Y-145184761D01*
X133429523Y-145137142D01*
X133477142Y-145041904D01*
X133477142Y-144232380D01*
X134429523Y-144232380D02*
X133953333Y-144232380D01*
X133905714Y-144708571D01*
X133953333Y-144660952D01*
X134048571Y-144613333D01*
X134286666Y-144613333D01*
X134381904Y-144660952D01*
X134429523Y-144708571D01*
X134477142Y-144803809D01*
X134477142Y-145041904D01*
X134429523Y-145137142D01*
X134381904Y-145184761D01*
X134286666Y-145232380D01*
X134048571Y-145232380D01*
X133953333Y-145184761D01*
X133905714Y-145137142D01*
X135096190Y-144232380D02*
X135191428Y-144232380D01*
X135286666Y-144280000D01*
X135334285Y-144327619D01*
X135381904Y-144422857D01*
X135429523Y-144613333D01*
X135429523Y-144851428D01*
X135381904Y-145041904D01*
X135334285Y-145137142D01*
X135286666Y-145184761D01*
X135191428Y-145232380D01*
X135096190Y-145232380D01*
X135000952Y-145184761D01*
X134953333Y-145137142D01*
X134905714Y-145041904D01*
X134858095Y-144851428D01*
X134858095Y-144613333D01*
X134905714Y-144422857D01*
X134953333Y-144327619D01*
X135000952Y-144280000D01*
X135096190Y-144232380D01*
X136381904Y-145232380D02*
X135810476Y-145232380D01*
X136096190Y-145232380D02*
X136096190Y-144232380D01*
X136000952Y-144375238D01*
X135905714Y-144470476D01*
X135810476Y-144518095D01*
X158305714Y-144362380D02*
X158305714Y-145171904D01*
X158353333Y-145267142D01*
X158400952Y-145314761D01*
X158496190Y-145362380D01*
X158686666Y-145362380D01*
X158781904Y-145314761D01*
X158829523Y-145267142D01*
X158877142Y-145171904D01*
X158877142Y-144362380D01*
X159829523Y-144362380D02*
X159353333Y-144362380D01*
X159305714Y-144838571D01*
X159353333Y-144790952D01*
X159448571Y-144743333D01*
X159686666Y-144743333D01*
X159781904Y-144790952D01*
X159829523Y-144838571D01*
X159877142Y-144933809D01*
X159877142Y-145171904D01*
X159829523Y-145267142D01*
X159781904Y-145314761D01*
X159686666Y-145362380D01*
X159448571Y-145362380D01*
X159353333Y-145314761D01*
X159305714Y-145267142D01*
X160496190Y-144362380D02*
X160591428Y-144362380D01*
X160686666Y-144410000D01*
X160734285Y-144457619D01*
X160781904Y-144552857D01*
X160829523Y-144743333D01*
X160829523Y-144981428D01*
X160781904Y-145171904D01*
X160734285Y-145267142D01*
X160686666Y-145314761D01*
X160591428Y-145362380D01*
X160496190Y-145362380D01*
X160400952Y-145314761D01*
X160353333Y-145267142D01*
X160305714Y-145171904D01*
X160258095Y-144981428D01*
X160258095Y-144743333D01*
X160305714Y-144552857D01*
X160353333Y-144457619D01*
X160400952Y-144410000D01*
X160496190Y-144362380D01*
X161210476Y-144457619D02*
X161258095Y-144410000D01*
X161353333Y-144362380D01*
X161591428Y-144362380D01*
X161686666Y-144410000D01*
X161734285Y-144457619D01*
X161781904Y-144552857D01*
X161781904Y-144648095D01*
X161734285Y-144790952D01*
X161162857Y-145362380D01*
X161781904Y-145362380D01*
X146200952Y-142343142D02*
X146153333Y-142390761D01*
X146010476Y-142438380D01*
X145915238Y-142438380D01*
X145772380Y-142390761D01*
X145677142Y-142295523D01*
X145629523Y-142200285D01*
X145581904Y-142009809D01*
X145581904Y-141866952D01*
X145629523Y-141676476D01*
X145677142Y-141581238D01*
X145772380Y-141486000D01*
X145915238Y-141438380D01*
X146010476Y-141438380D01*
X146153333Y-141486000D01*
X146200952Y-141533619D01*
X147105714Y-141438380D02*
X146629523Y-141438380D01*
X146581904Y-141914571D01*
X146629523Y-141866952D01*
X146724761Y-141819333D01*
X146962857Y-141819333D01*
X147058095Y-141866952D01*
X147105714Y-141914571D01*
X147153333Y-142009809D01*
X147153333Y-142247904D01*
X147105714Y-142343142D01*
X147058095Y-142390761D01*
X146962857Y-142438380D01*
X146724761Y-142438380D01*
X146629523Y-142390761D01*
X146581904Y-142343142D01*
X147772380Y-141438380D02*
X147867619Y-141438380D01*
X147962857Y-141486000D01*
X148010476Y-141533619D01*
X148058095Y-141628857D01*
X148105714Y-141819333D01*
X148105714Y-142057428D01*
X148058095Y-142247904D01*
X148010476Y-142343142D01*
X147962857Y-142390761D01*
X147867619Y-142438380D01*
X147772380Y-142438380D01*
X147677142Y-142390761D01*
X147629523Y-142343142D01*
X147581904Y-142247904D01*
X147534285Y-142057428D01*
X147534285Y-141819333D01*
X147581904Y-141628857D01*
X147629523Y-141533619D01*
X147677142Y-141486000D01*
X147772380Y-141438380D01*
X148486666Y-141533619D02*
X148534285Y-141486000D01*
X148629523Y-141438380D01*
X148867619Y-141438380D01*
X148962857Y-141486000D01*
X149010476Y-141533619D01*
X149058095Y-141628857D01*
X149058095Y-141724095D01*
X149010476Y-141866952D01*
X148439047Y-142438380D01*
X149058095Y-142438380D01*
X192984380Y-148883476D02*
X191984380Y-148883476D01*
X191984380Y-148645380D01*
X192032000Y-148502523D01*
X192127238Y-148407285D01*
X192222476Y-148359666D01*
X192412952Y-148312047D01*
X192555809Y-148312047D01*
X192746285Y-148359666D01*
X192841523Y-148407285D01*
X192936761Y-148502523D01*
X192984380Y-148645380D01*
X192984380Y-148883476D01*
X191984380Y-147978714D02*
X191984380Y-147359666D01*
X192365333Y-147693000D01*
X192365333Y-147550142D01*
X192412952Y-147454904D01*
X192460571Y-147407285D01*
X192555809Y-147359666D01*
X192793904Y-147359666D01*
X192889142Y-147407285D01*
X192936761Y-147454904D01*
X192984380Y-147550142D01*
X192984380Y-147835857D01*
X192936761Y-147931095D01*
X192889142Y-147978714D01*
X191984380Y-146740619D02*
X191984380Y-146645380D01*
X192032000Y-146550142D01*
X192079619Y-146502523D01*
X192174857Y-146454904D01*
X192365333Y-146407285D01*
X192603428Y-146407285D01*
X192793904Y-146454904D01*
X192889142Y-146502523D01*
X192936761Y-146550142D01*
X192984380Y-146645380D01*
X192984380Y-146740619D01*
X192936761Y-146835857D01*
X192889142Y-146883476D01*
X192793904Y-146931095D01*
X192603428Y-146978714D01*
X192365333Y-146978714D01*
X192174857Y-146931095D01*
X192079619Y-146883476D01*
X192032000Y-146835857D01*
X191984380Y-146740619D01*
X192984380Y-145454904D02*
X192984380Y-146026333D01*
X192984380Y-145740619D02*
X191984380Y-145740619D01*
X192127238Y-145835857D01*
X192222476Y-145931095D01*
X192270095Y-146026333D01*
X189047380Y-138914047D02*
X188571190Y-139247380D01*
X189047380Y-139485476D02*
X188047380Y-139485476D01*
X188047380Y-139104523D01*
X188095000Y-139009285D01*
X188142619Y-138961666D01*
X188237857Y-138914047D01*
X188380714Y-138914047D01*
X188475952Y-138961666D01*
X188523571Y-139009285D01*
X188571190Y-139104523D01*
X188571190Y-139485476D01*
X188047380Y-138580714D02*
X188047380Y-137961666D01*
X188428333Y-138295000D01*
X188428333Y-138152142D01*
X188475952Y-138056904D01*
X188523571Y-138009285D01*
X188618809Y-137961666D01*
X188856904Y-137961666D01*
X188952142Y-138009285D01*
X188999761Y-138056904D01*
X189047380Y-138152142D01*
X189047380Y-138437857D01*
X188999761Y-138533095D01*
X188952142Y-138580714D01*
X188047380Y-137342619D02*
X188047380Y-137247380D01*
X188095000Y-137152142D01*
X188142619Y-137104523D01*
X188237857Y-137056904D01*
X188428333Y-137009285D01*
X188666428Y-137009285D01*
X188856904Y-137056904D01*
X188952142Y-137104523D01*
X188999761Y-137152142D01*
X189047380Y-137247380D01*
X189047380Y-137342619D01*
X188999761Y-137437857D01*
X188952142Y-137485476D01*
X188856904Y-137533095D01*
X188666428Y-137580714D01*
X188428333Y-137580714D01*
X188237857Y-137533095D01*
X188142619Y-137485476D01*
X188095000Y-137437857D01*
X188047380Y-137342619D01*
X189047380Y-136056904D02*
X189047380Y-136628333D01*
X189047380Y-136342619D02*
X188047380Y-136342619D01*
X188190238Y-136437857D01*
X188285476Y-136533095D01*
X188333095Y-136628333D01*
%LPC*%
D16*
X172085000Y-103505000D03*
D17*
X182245000Y-103505000D03*
D18*
X194310000Y-112395000D03*
D16*
X194310000Y-104775000D03*
D19*
X191135000Y-110490000D03*
D20*
X188595000Y-110490000D03*
X189865000Y-110490000D03*
D21*
X191770000Y-127635000D03*
D22*
X189230000Y-126365000D03*
X191770000Y-125095000D03*
X189230000Y-123825000D03*
X191770000Y-122555000D03*
X189230000Y-121285000D03*
X191770000Y-120015000D03*
X189230000Y-118745000D03*
D23*
X198120000Y-128905000D03*
X198120000Y-117475000D03*
X198120000Y-100330000D03*
X117475000Y-147320000D03*
X198120000Y-147320000D03*
X117475000Y-100330000D03*
D17*
X189865000Y-101600000D03*
X189865000Y-106600000D03*
X182245000Y-140970000D03*
X182245000Y-135970000D03*
X182245000Y-143590000D03*
X182245000Y-148590000D03*
X157480000Y-102616000D03*
X152480000Y-102616000D03*
X173228000Y-148590000D03*
X173228000Y-143590000D03*
X123270000Y-113030000D03*
X128270000Y-113030000D03*
D24*
X143510000Y-101600000D03*
D25*
X143510000Y-99060000D03*
X136525000Y-99060000D03*
D24*
X136525000Y-101600000D03*
D26*
X195072000Y-133095000D03*
D27*
X192072000Y-137795000D03*
X198072000Y-137795000D03*
D28*
X181610000Y-98425000D03*
D29*
X179070000Y-98425000D03*
X176530000Y-98425000D03*
X173990000Y-98425000D03*
X171450000Y-98425000D03*
D30*
X134620000Y-134620000D03*
D31*
X137160000Y-134620000D03*
X139700000Y-134620000D03*
X142240000Y-134620000D03*
X144780000Y-134620000D03*
X147320000Y-134620000D03*
X149860000Y-134620000D03*
X152400000Y-134620000D03*
X154940000Y-134620000D03*
X157480000Y-134620000D03*
X160020000Y-134620000D03*
X162560000Y-134620000D03*
X165100000Y-134620000D03*
X167640000Y-134620000D03*
X170180000Y-134620000D03*
X172720000Y-134620000D03*
X172720000Y-119380000D03*
X170180000Y-119380000D03*
X167640000Y-119380000D03*
X165100000Y-119380000D03*
X162560000Y-119380000D03*
X160020000Y-119380000D03*
X157480000Y-119380000D03*
X154940000Y-119380000D03*
X152400000Y-119380000D03*
X149860000Y-119380000D03*
X147320000Y-119380000D03*
X144780000Y-119380000D03*
X142240000Y-119380000D03*
X139700000Y-119380000D03*
X137160000Y-119380000D03*
X134620000Y-119380000D03*
D20*
X182880000Y-119380000D03*
X184150000Y-119380000D03*
D19*
X181610000Y-119380000D03*
D17*
X172085000Y-106680000D03*
D16*
X182245000Y-106680000D03*
D17*
X182245000Y-109855000D03*
D16*
X172085000Y-109855000D03*
D17*
X185420000Y-133350000D03*
D16*
X185420000Y-123190000D03*
X172085000Y-113030000D03*
D17*
X182245000Y-113030000D03*
X185420000Y-103505000D03*
D16*
X185420000Y-113665000D03*
X181610000Y-133350000D03*
D17*
X181610000Y-123190000D03*
X127635000Y-108585000D03*
D16*
X127635000Y-98425000D03*
X123825000Y-98425000D03*
D17*
X123825000Y-108585000D03*
D32*
X177800000Y-142240000D03*
D33*
X177800000Y-144780000D03*
X177800000Y-147320000D03*
D18*
X165100000Y-105410000D03*
D16*
X132080000Y-113030000D03*
X162560000Y-105410000D03*
X134620000Y-113030000D03*
X160020000Y-105410000D03*
X137160000Y-113030000D03*
X157480000Y-105410000D03*
X139700000Y-113030000D03*
X154940000Y-105410000D03*
X142240000Y-113030000D03*
X152400000Y-105410000D03*
X144780000Y-113030000D03*
X149860000Y-105410000D03*
X147320000Y-113030000D03*
X147320000Y-105410000D03*
X149860000Y-113030000D03*
X144780000Y-105410000D03*
X152400000Y-113030000D03*
X142240000Y-105410000D03*
X154940000Y-113030000D03*
X139700000Y-105410000D03*
X157480000Y-113030000D03*
X137160000Y-105410000D03*
X160020000Y-113030000D03*
X134620000Y-105410000D03*
X162560000Y-113030000D03*
X132080000Y-105410000D03*
X165100000Y-113030000D03*
D17*
X124460000Y-148590000D03*
X124460000Y-140970000D03*
X142240000Y-148590000D03*
X139700000Y-148590000D03*
X137160000Y-148590000D03*
X134620000Y-148590000D03*
X132080000Y-148590000D03*
X129540000Y-148590000D03*
X127000000Y-148590000D03*
X127000000Y-140970000D03*
X129540000Y-140970000D03*
X132080000Y-140970000D03*
X134620000Y-140970000D03*
X137160000Y-140970000D03*
X139700000Y-140970000D03*
D18*
X142240000Y-140970000D03*
X168910000Y-140970000D03*
D17*
X166370000Y-140970000D03*
X163830000Y-140970000D03*
X161290000Y-140970000D03*
X158750000Y-140970000D03*
X156210000Y-140970000D03*
X153670000Y-140970000D03*
X153670000Y-148590000D03*
X156210000Y-148590000D03*
X158750000Y-148590000D03*
X161290000Y-148590000D03*
X163830000Y-148590000D03*
X166370000Y-148590000D03*
X168910000Y-148590000D03*
X151130000Y-140970000D03*
X151130000Y-148590000D03*
X147320000Y-148590000D03*
X147320000Y-143590000D03*
D25*
X187325000Y-147320000D03*
D24*
X189865000Y-147320000D03*
D17*
X188595000Y-132715000D03*
D16*
X188595000Y-142875000D03*
M02*
